<ttFont>
          <CharString index="0">
            rmoveto
            51 callgsubr
            442 -245 270 -362 -356 -250 -270 -442 vhcurveto
            80 callgsubr
            -442 252 -269 356 362 243 269 442 vhcurveto
            -260 75 rmoveto
            -75 vlineto
            -323.02 -124 -175 -221 -214 -134 175 323.02 vhcurveto
            75 vlineto
            322.99 132 66 callsubr
            220 127.02 9 callsubr
            -322.99 vhcurveto
            endchar
          </CharString>
          <CharString index="1">
            rmoveto
            313 -150 221 -314 -280 -212 -217.99 -340.01 vhcurveto
            -41 vlineto
            -296 197.02 -227 322.99 215 134 101 101.99 69 vhcurveto
            -133 129 rlineto
            -83 -64 -89 -79 callsubr
            -117 hhcurveto
            -167 -103 0 callsubr
            164 -14.01 hvcurveto
            705 hlineto
            -246 180 rmoveto
            -454 130 callsubr
            22.02 81 98 18 callsubr
            hhcurveto
            158 28 callsubr
            -115 -124.99 6 hvcurveto
            endchar
          </CharString>
          <CharString index="2">
            248.99 return
          </CharString>
          <CharString index="3">
            -103 callgsubr
            hintmask 10111101
            -98 callgsubr
            hintmask 01111011
            -83 callgsubr
            hintmask 10111011
            -74 callsubr
            hintmask 10111101
            -102 callsubr
          </CharString>
          <CharString index="4">
            251 hlineto
            -468 68 callgsubr
            -63 hlineto
            -166 hlineto
            -470 50 callgsubr
            251 hlineto
            94 245.99 rlineto
            477 hlineto
            -405.01 188 rmoveto
            166 436 167 -436 rlineto
            endchar
          </CharString>
          <CharString index="5">
            -476 -65 callgsubr
            rmoveto
            -108.01 -58.99 64 -17 callsubr
            111 87.99 68 176 hvcurveto
            130 -202 hlineto
            -64 -34 -83 -19 callgsubr
            -110 hhcurveto
            endchar
          </CharString>
          <CharString index="6">
            rmoveto
            -250 -765.99 hlineto
            -151 -85.01 -64 8 callsubr
            -142 -88 64 151 vhcurveto
            765.99 -247.99 -765.99 vlineto
            -270.99 199 -143.99 279 273 204 143.99 270.99 vhcurveto
            endchar
          </CharString>
          <CharString index="7">
            313 -2 240 -52 callsubr
            368 vvcurveto
            685 -1018 -199 135 vlineto
            -54 -82 -30.99 29 callsubr
            -131 vvcurveto
            11 callgsubr
            -132 99 -58 115 -19.99 160 12.99 rlinecurve
            189 vlineto
            -56 -43 4 9.01 -29 hvcurveto
            74 vlineto
            94 20 callsubr
            17 callgsubr
            35 75 vhcurveto
            411.01 -526.99 hlineto
            -184 -110 -97.01 -204 -1.99 vhcurveto
            -91.01 -134 17.99 37 -128.99 hvcurveto
            -47 -187 rlineto
            return
          </CharString>
          <CharString index="8">
            199.99 return
          </CharString>
          <CharString index="9">
            -105 callsubr
            vstem
            return
          </CharString>
          <CharString index="10">
            -44 callgsubr
            vstem
            674.98 -23 rmoveto
            312.02 208 220.98 331.02 hvcurveto
            128.99 vlineto
            357 -204 201.02 -351.99 -176 -224 -31.01 -47 -158.99 vhcurveto
            48.99 -187 55 16 80 20.01 44 7 rlinecurve
            11 callgsubr
            -4.02 -5 -2.99 -4 -3 -5 -5 rlinecurve
            -77 -65 -65 -153.99 2 -136 rrcurveto
            -37 callgsubr
            vlineto
            -331.02 3.99 209 -220.98 305.99 hhcurveto
            210.98 vmoveto
            -158.99 -107 136 204 hvcurveto
            112.01 vlineto
            232 3 34 callgsubr
            134.99 160 hhcurveto
            74 callgsubr
            102.01 120 callsubr
            -223 hvcurveto
            -126 vlineto
            -204 -107 -136 -160.02 vhcurveto
            return
          </CharString>
          <CharString index="11">
            rmoveto
            440 595 204 -595 395 689.99 209 -689.99 vlineto
            4 callgsubr
            hlineto
            764.99 -92 callgsubr
            hlineto
            endchar
          </CharString>
          <CharString index="12">
            -64 -86 callsubr
            650.99 -44 callgsubr
            vstem
            651 130 callgsubr
            791 hlineto
            250 -161 41 callsubr
            -269 vhcurveto
            -392.99 -199 378 hlineto
            122 168 callgsubr
          </CharString>
          <CharString index="13">
            249.01 return
          </CharString>
          <CharString index="14">
            253.99 return
          </CharString>
          <CharString index="15">
            254 vstem
            162.98 hmoveto
            251 hlineto
            79.01 739.98 rlineto
            169 18 -95 callgsubr
            98 120.02 hhcurveto
            146 81.99 -100.99 -184 hvcurveto
            -523 -251.99 -198.98 506 689.99 vlineto
            345 -2 -182 181 -343 hhcurveto
            -175 -217.99 -38.02 -55 -153 hvcurveto
            56 -186 -61 callsubr
            22.02 94 -31 callgsubr
            55 9.01 rlinecurve
            11 callgsubr
            -4.02 -5 -2.99 -7 -5 -5 -5 rlinecurve
            -8 callgsubr
            -54 -49 -104 -13 123 callgsubr
            rrcurveto
            return
          </CharString>
          <CharString index="16">
            6 194.99 rlineto
            11 75 callgsubr
            -47 7 -47 hhcurveto
            -235.99 -146 -132 -241 hvcurveto
            -16 callgsubr
            -165 -184 165 -897.99 249 897.99 return
          </CharString>
          <CharString index="17">
            188.99 return
          </CharString>
          <CharString index="18">
            -66.99 return
          </CharString>
          <CharString index="19">
            122.98 vstem
            797 1475.99 rmoveto
            -392 -318 -323.99 -423.02 -423 318 -326.98 392 390.99 319 326.98 423 423.02 -319 323.99 -390.99 hvcurveto
            -1372 vmoveto
            -325.02 -262.98 272 353 353.01 262.98 268.98 325.02 324 263 -268.98 -353.01 -353 -263 -272 -324 hvcurveto
            return
          </CharString>
          <CharString index="20">
            323.01 209 -52 callsubr
            368 hvcurveto
            677.99 -830 -199 576 -526.99 vlineto
            -182 -100 -98 -207 -2.99 vhcurveto
            87 callsubr
            -91.01 12 -31 callgsubr
            -106 hvcurveto
            -40 -187 rlineto
            return
          </CharString>
          <CharString index="21">
            0 -80 callsubr
            hstem
            return
          </CharString>
          <CharString index="22">
            48.99 -52 79.01 return
          </CharString>
          <CharString index="23">
            77 callsubr
            79 callgsubr
            -170.01001 189 193.01001 -90 callsubr
            -170.00002 188 hintmask 11110010
            550.99 return
          </CharString>
          <CharString index="24">
            126 -79 callgsubr
            return
          </CharString>
          <CharString index="25">
            -28 callsubr
            -226.01 -94 callsubr
            return
          </CharString>
          <CharString index="26">
            275 0 43 290.98 -57 callsubr
            872.04999 -96 callgsubr
            return
          </CharString>
          <CharString index="27">
            43 946.98 199 return
          </CharString>
          <CharString index="28">
            -48.99 return
          </CharString>
          <CharString index="29">
            -259.01 -78 callgsubr
            return
          </CharString>
          <CharString index="30">
            247.99 return
          </CharString>
          <CharString index="31">
            193 -40 37 -48 -69 vvcurveto
            -76 -60 callgsubr
            -54 -124.99 -107 75 callsubr
            47 130 -6 vhcurveto
            -241 hlineto
            -178.02 -52 callsubr
            -183.99 297 267 -6 callgsubr
            136 192 197 -151 82.99 11 callsubr
            122 callsubr
            vhcurveto
            -170.99 35.98 -49 38 70 vvcurveto
            71 58 62 119 vhcurveto
            return
          </CharString>
          <CharString index="32">
            251 vstem
            1082 -59 callsubr
            -946.01 -199 135 hlineto
            -54 -82 -33 -139 2 29 callsubr
            11 callgsubr
            -178 rcurveline
            99 -58 115 -19.99 160 13 rrcurveto
            -90 callsubr
            vlineto
            -56 -43 4 9.01 -29 hvcurveto
            104 callgsubr
            vlineto
            94 20 callsubr
            104 35 75 vhcurveto
            342.02 -1405.99 251 hlineto
            return
          </CharString>
          <CharString index="33">
            -26.99 57 -14.01 -95 callgsubr
            100 vvcurveto
            return
          </CharString>
          <CharString index="34">
            10 -20 200 282.99 179.99 258.99998 200 return
          </CharString>
          <CharString index="35">
            72.99 return
          </CharString>
          <CharString index="36">
            -36.99 return
          </CharString>
          <CharString index="37">
            rmoveto
            120 callsubr
            -108.01 -53 -92 -76 hvcurveto
            -36 callsubr
            91 callsubr
            rlineto
            -234 -1082 249 769.99 hlineto
            79.01 43 74 50 17 callgsubr
            hhcurveto
            123 10 callsubr
            -51 -148 hvcurveto
            -699.99 249 698 vlineto
            296 -135.99 -17 callgsubr
            -208.02 vhcurveto
            endchar
          </CharString>
          <CharString index="38">
            202.99 return
          </CharString>
          <CharString index="39">
            226 -121 138 -198 -77 -93 -28 -41 17 callsubr
            vhcurveto
            29.03 -165 rlineto
            17 90 callsubr
            43 10.02 1 callsubr
            hhcurveto
            121 callgsubr
            52.99 -63.02 -115 hvcurveto
            -367.98 vlineto
            -164 -98 -110 -146.99 -146 86 callgsubr
            110 164 vhcurveto
            return
          </CharString>
          <CharString index="40">
            -13 callgsubr
            hstem
            return
          </CharString>
          <CharString index="41">
            164.99 return
          </CharString>
          <CharString index="42">
            1164.98 return
          </CharString>
          <CharString index="43">
            -188 -78 129 233 hvcurveto
            51 callgsubr
            238 22 callgsubr
            124 179 173 140 callsubr
            -88 -124.99 86 callsubr
            vhcurveto
            249 hlineto
            238.98 160 callsubr
            -162 174.02 -311.01 hhcurveto
            -316 -202 -216 -347.02 hvcurveto
            -23 callsubr
            vlineto
            return
          </CharString>
          <CharString index="44">
            -92 callgsubr
            439.98999 204 395 -57 callsubr
            return
          </CharString>
          <CharString index="45">
            hlineto
            -82 395 rlineto
            -12 103 callsubr
            -7 -72 callgsubr
            -45 callsubr
            vvcurveto
            607 -513.99 -199 264.99 -524.99 vlineto
            return
          </CharString>
          <CharString index="46">
            59.99 return
          </CharString>
          <CharString index="47">
            -40 -34.97 -48 -25 callsubr
            98 callsubr
            return
          </CharString>
          <CharString index="48">
            -70 callgsubr
            rmoveto
            return
          </CharString>
          <CharString index="49">
            324 -20 212.99 1069 213.99 return
          </CharString>
          <CharString index="50">
            208.99 return
          </CharString>
          <CharString index="51">
            1398.99 33 callgsubr
            rmoveto
            53 1 callsubr
            34 48 48 -23 callgsubr
            123 callsubr
            -53 -51 -60 callsubr
            51 hvcurveto
            -982 94 callsubr
            return
          </CharString>
          <CharString index="52">
            7 callgsubr
            -47 -46 -49 callsubr
            -37 52 hvcurveto
            endchar
          </CharString>
          <CharString index="53">
            hstem
            -86 callgsubr
            return
          </CharString>
          <CharString index="54">
            -88 callgsubr
            -4 callsubr
            return
          </CharString>
          <CharString index="55">
            160.99 return
          </CharString>
          <CharString index="56">
            vstem
            1107.99 -59 callsubr
            -285 hlineto
            133 callsubr
            -432 153 callgsubr
            432 rlineto
            -284 hlineto
            672.01 -989 rlineto
            -586.02 -199.99 912.02 0 callsubr
            hlineto
            -288.01 417 rlineto
            return
          </CharString>
          <CharString index="57">
            616.98 -19 callsubr
            rmoveto
            122 callsubr
            -53 callgsubr
            -52.02 -52 -39 -35 -48 return
          </CharString>
          <CharString index="58">
            38.99 return
          </CharString>
          <CharString index="59">
            77 callsubr
            32 callgsubr
            190 -178 189 224.98999 189 -174.98999 -90 callsubr
            return
          </CharString>
          <CharString index="60">
            247 6 callsubr
            return
          </CharString>
          <CharString index="61">
            -93 callsubr
            vstem
            588.98 hmoveto
            336.02 8.99 211.99 102 callgsubr
            319.02 vvcurveto
            676.99 -965 -199 711 -483 vlineto
            -197 133 callgsubr
            -109 -180 -6 vhcurveto
            return
          </CharString>
          <CharString index="62">
            60.99 return
          </CharString>
          <CharString index="63">
            -17 callgsubr
            hlineto
            269 hlineto
            343 232 223.99 333 hvcurveto
            50 vlineto
            333 -233 224.99 -338 vhcurveto
            322.01 -607.99 rmoveto
            -231 86 callgsubr
            -126 -228.99 vhcurveto
            -128 return
          </CharString>
          <CharString index="64">
            -68 callgsubr
            -257.98 -78 callgsubr
            vlineto
            endchar
          </CharString>
          <CharString index="65">
            -199 203 hlineto
            -52 -75 -27 136 callgsubr
            -98 vvcurveto
            -329.02 vlineto
            -116 -50 -53 -105 -22 -22 1 2 -23 vhcurveto
            return
          </CharString>
          <CharString index="66">
            -93 callsubr
            178 callsubr
            rmoveto
            254 671 -455 -199 201 hlineto
            return
          </CharString>
          <CharString index="67">
            hstem
            42 callsubr
            260.01 693.00002 21 callgsubr
            vstem
            return
          </CharString>
          <CharString index="68">
            34.02 33 -3 -5.98 -31 callgsubr
            return
          </CharString>
          <CharString index="69">
            -1 callgsubr
            -89 callgsubr
            return
          </CharString>
          <CharString index="70">
            88.99 return
          </CharString>
          <CharString index="71">
            -7.99 return
          </CharString>
          <CharString index="72">
            -1 callsubr
            19 callgsubr
            vlineto
            150.02 191 callgsubr
            198.99 hlineto
            return
          </CharString>
          <CharString index="73">
            hstem
            76.98 188 245.01001 184 callsubr
            447 return
          </CharString>
          <CharString index="74">
            6 -7 callgsubr
            rlineto
            234.99 1082 hlineto
            endchar
          </CharString>
          <CharString index="75">
            288.99 return
          </CharString>
          <CharString index="76">
            39.02 return
          </CharString>
          <CharString index="77">
            -95 callgsubr
            -77 callsubr
            return
          </CharString>
          <CharString index="78">
            rlineto
            105 -36 callsubr
            90 callgsubr
            -17 -59 vvcurveto
            -63 -57.02 -25 87 callsubr
            vhcurveto
            6.99 -142 rlineto
            217 2 callgsubr
            107 callgsubr
            135 hvcurveto
            hintmask 10101110
            115 -76 45 return
          </CharString>
          <CharString index="79">
            hstemhm
            87.98 -94 callsubr
            return
          </CharString>
          <CharString index="80">
            152 hstem
            69.98 189 230 188 vstem
            372.98 return
          </CharString>
          <CharString index="81">
            78.01 -36 callgsubr
            52 return
          </CharString>
          <CharString index="82">
            -45.02 return
          </CharString>
          <CharString index="83">
            -20.99 return
          </CharString>
          <CharString index="84">
            -71.99 return
          </CharString>
          <CharString index="85">
            249.02 return
          </CharString>
          <CharString index="86">
            1568.99 rmoveto
            153 callgsubr
            -9 callgsubr
            129 callgsubr
            -12.98 196.02 vlineto
            150 9 callgsubr
            151 122 callgsubr
            rlineto
            199 hlineto
            return
          </CharString>
          <CharString index="87">
            35 -52 -52 -39 -35 -47 -46 39 -37 52 hvcurveto
            endchar
          </CharString>
          <CharString index="88">
            -328.99 return
          </CharString>
          <CharString index="89">
            171.99 return
          </CharString>
          <CharString index="90">
            84.99 return
          </CharString>
          <CharString index="91">
            -38.99 return
          </CharString>
          <CharString index="92">
            -65 callsubr
            -249 -786.99 vlineto
            -514.99 786.99 rlineto
            -249 190 callsubr
            786.98 hlineto
            514.99 -786.98 rlineto
            endchar
          </CharString>
          <CharString index="93">
            rmoveto
            -77 -60 -29 -40 -41 hvcurveto
            145 21.02 105.99 46 156.02 hhcurveto
            11 return
          </CharString>
          <CharString index="94">
            116 -105 callsubr
            return
          </CharString>
          <CharString index="95">
            -44 callgsubr
            vstem
            846.99 130 callgsubr
            747.99 hlineto
            286 -168 155 -307 vhcurveto
            -479 -199 462 hlineto
            164 75 -23 callsubr
            -160 hvcurveto
            return
          </CharString>
          <CharString index="96">
            78 callsubr
            120 callgsubr
            303 rlineto
            return
          </CharString>
          <CharString index="97">
            94 0 43 -69 callsubr
            188 return
          </CharString>
          <CharString index="98">
            -194.99 35 callsubr
            return
          </CharString>
          <CharString index="99">
            71.99 return
          </CharString>
          <CharString index="100">
            -51.02 return
          </CharString>
          <CharString index="101">
            7.99 return
          </CharString>
          <CharString index="102">
            -68 callgsubr
            -257 -1025.99 vlineto
            -642.99 1025.99 rlineto
            -259.01 76 callsubr
            1024 hlineto
            641 -1024 rlineto
            endchar
          </CharString>
          <CharString index="103">
            -51 callgsubr
            53 -25 callgsubr
            return
          </CharString>
          <CharString index="104">
            -72 callsubr
            42 60 -8 callsubr
            69.02 46.99 -40 -94 hvcurveto
            return
          </CharString>
          <CharString index="105">
            hstem
            32 callgsubr
            632.99 vstem
            686.98 return
          </CharString>
          <CharString index="106">
            -275.99 rlineto
            -13 return
          </CharString>
          <CharString index="107">
            118.99 return
          </CharString>
          <CharString index="108">
            37.99 return
          </CharString>
          <CharString index="109">
            76.99 return
          </CharString>
          <CharString index="110">
            -30 callgsubr
            570.00002 21 callgsubr
            vstem
            577.99 4 callsubr
            -173 hlineto
            -259.01 return
          </CharString>
          <CharString index="111">
            -68 callgsubr
            rmoveto
            return
          </CharString>
          <CharString index="112">
            867.98 -19 callsubr
            rmoveto
            52 38 35 46.99 179 callsubr
            102 callsubr
            -49 callsubr
            -35 52 hvcurveto
            return
          </CharString>
          <CharString index="113">
            -20 -92 callgsubr
            1227.02998 -96 callgsubr
            return
          </CharString>
          <CharString index="114">
            hstem
            -13 callsubr
            return
          </CharString>
          <CharString index="115">
            -141.99 return
          </CharString>
          <CharString index="116">
            -173.02 return
          </CharString>
          <CharString index="117">
            66.01 return
          </CharString>
          <CharString index="118">
            -249.02 return
          </CharString>
          <CharString index="119">
            127 callsubr
            497.99 184 callsubr
            34 callgsubr
            return
          </CharString>
          <CharString index="120">
            76 vvcurveto
            146 117 callgsubr
            77 -168 -165 -119.01 -77 -146 return
          </CharString>
          <CharString index="121">
            -52 78 callgsubr
            return
          </CharString>
          <CharString index="122">
            -180.99 -179.02 -123.99 return
          </CharString>
          <CharString index="123">
            -176.99 return
          </CharString>
          <CharString index="124">
            -67.02 return
          </CharString>
          <CharString index="125">
            131.99 return
          </CharString>
          <CharString index="126">
            177.99 return
          </CharString>
          <CharString index="127">
            19.99 return
          </CharString>
          <CharString index="128">
            -25.99 return
          </CharString>
          <CharString index="129">
            rmoveto
            245 430 hlineto
            104 -6 callsubr
            71 14.01 56 vhcurveto
            -204 hlineto
            -24 -39 -39 -63.02 -151.99 vvcurveto
            endchar
          </CharString>
          <CharString index="130">
            -93 callsubr
            vstem
            -61 callsubr
            -59 callsubr
            -199 532 -989.98 254 91 callgsubr
            204 199 vlineto
            return
          </CharString>
          <CharString index="131">
            -509 -13 callgsubr
            return
          </CharString>
          <CharString index="132">
            hstemhm
            -77 callgsubr
            return
          </CharString>
          <CharString index="133">
            1101.99 rmoveto
            return
          </CharString>
          <CharString index="134">
            -65 callsubr
            rmoveto
            return
          </CharString>
          <CharString index="135">
            54.99 return
          </CharString>
          <CharString index="136">
            -130.99 return
          </CharString>
          <CharString index="137">
            65.99 return
          </CharString>
          <CharString index="138">
            -102.01 return
          </CharString>
          <CharString index="139">
            20.99 return
          </CharString>
          <CharString index="140">
            -196.02 return
          </CharString>
          <CharString index="141">
            148.99 return
          </CharString>
          <CharString index="142">
            -303 rlineto
            return
          </CharString>
          <CharString index="143">
            936 rmoveto
            -169.99 hlineto
            -287 -390 rlineto
            -6 vlineto
            -13 vlineto
            287 -390 rlineto
            169.99 hlineto
            159 callgsubr
            400 rlineto
            return
          </CharString>
          <CharString index="144">
            125 callgsubr
            946.98 199 hstemhm
            231.99 246.99 return
          </CharString>
          <CharString index="145">
            -222 -328.99 85 callgsubr
            -314.98 return
          </CharString>
          <CharString index="146">
            -189.99 -189 -115 -122 -147 vhcurveto
            189 hlineto
            65 -49 callsubr
            53 83.01 89 callgsubr
            36 return
          </CharString>
          <CharString index="147">
            hstem
            81.98 256 454 246 vstem
            return
          </CharString>
          <CharString index="148">
            147.99 return
          </CharString>
          <CharString index="149">
            99.98 return
          </CharString>
          <CharString index="150">
            -172.02 -63 144 102 callgsubr
            hvcurveto
            -73 callgsubr
            204 65 169.99 -18 callsubr
            return
          </CharString>
          <CharString index="151">
            49 45 callsubr
            return
          </CharString>
          <CharString index="152">
            -52 -49 callgsubr
            -26 callsubr
            return
          </CharString>
          <CharString index="153">
            rmoveto
            66 callgsubr
            11 hlineto
            return
          </CharString>
          <CharString index="154">
            122.98 -94 callsubr
            return
          </CharString>
          <CharString index="155">
            hvcurveto
            -7 callsubr
            vlineto
            -210.99 130 123 callgsubr
            -90 callsubr
            181 122 117 return
          </CharString>
          <CharString index="156">
            -54 callsubr
            vstem
            return
          </CharString>
          <CharString index="157">
            -78 callgsubr
            rlineto
            return
          </CharString>
          <CharString index="158">
            153 87 -51 65 -81 36 vhcurveto
            hintmask 11101100
            -173 243 rmoveto
            63 35 -32 64 callgsubr
            return
          </CharString>
          <CharString index="159">
            16 32 callsubr
            30 23 68 hhcurveto
            86.02 45 return
          </CharString>
          <CharString index="160">
            78 73 callgsubr
            -78 return
          </CharString>
          <CharString index="161">
            -156 hhcurveto
            -13 -150 14.99 hlineto
            279 170 return
          </CharString>
          <CharString index="162">
            150 235.99 315 hvcurveto
            21.02 vlineto
            115 callsubr
            -149.02 221 return
          </CharString>
          <CharString index="163">
            740.99 -253.99 -716 vlineto
            -297 200 -198.98 297.98 vhcurveto
            return
          </CharString>
          <CharString index="164">
            vlineto
            -121 29 callgsubr
            -46.02 -72 -65 callgsubr
            -43 46.02 121 vhcurveto
            return
          </CharString>
          <CharString index="165">
            201 callsubr
            179 callsubr
            -47 -49 callsubr
            -35 52 hvcurveto
            endchar
          </CharString>
          <CharString index="166">
            136 callsubr
            -44.99 116 callgsubr
            -48 -82.99 vvcurveto
            -71 -60 -64 -142 return
          </CharString>
          <CharString index="167">
            151 -369.01 vlineto
            136 109 rlineto
            135 return
          </CharString>
          <CharString index="168">
            124 callgsubr
            124.01 115 -17 104 hhcurveto
            return
          </CharString>
          <CharString index="169">
            236 -23 -69 callsubr
            268.98999 189 return
          </CharString>
          <CharString index="170">
            -18 callsubr
            245 308 246 return
          </CharString>
          <CharString index="171">
            hstemhm
            116.98 -94 callsubr
            return
          </CharString>
          <CharString index="172">
            vhcurveto
            -73 callgsubr
            return
          </CharString>
          <CharString index="173">
            -6 callgsubr
            214 return
          </CharString>
          <CharString index="174">
            256 205 256 return
          </CharString>
          <CharString index="175">
            -69 callsubr
            hstem
            return
          </CharString>
          <CharString index="176">
            -68 callgsubr
            rlineto
            return
          </CharString>
          <CharString index="177">
            1495.98 rmoveto
            -89 -52 -57 -76 -75 52 -56 89 88 53 56 75 76 -53 57 -88 hvcurveto
            hintmask 11010000
            return
          </CharString>
          <CharString index="178">
            -53 -8 callgsubr
            -78 -76 53 -59.98 return
          </CharString>
          <CharString index="179">
            hstem
            115 callsubr
            187 vstem
            515.99 return
          </CharString>
          <CharString index="180">
            -17.99 -38 -24 -54 hhcurveto
            endchar
          </CharString>
          <CharString index="181">
            73.01 return
          </CharString>
          <CharString index="182">
            -107.99 return
          </CharString>
          <CharString index="183">
            -78 callgsubr
            -84 callgsubr
            return
          </CharString>
          <CharString index="184">
            -87 callgsubr
            hstemhm
            return
          </CharString>
          <CharString index="185">
            35 callsubr
            200 hlineto
            return
          </CharString>
          <CharString index="186">
            -5 callgsubr
            hstemhm
            return
          </CharString>
          <CharString index="187">
            143 callgsubr
            946.98 199 hstemhm
            return
          </CharString>
          <CharString index="188">
            67 callgsubr
            303 rlineto
            -281.01 hlineto
            271.02 35 callsubr
            return
          </CharString>
          <CharString index="189">
            1361.98 rmoveto
            537 135 -537 hlineto
            return
          </CharString>
          <CharString index="190">
            rmoveto
            -52 callgsubr
            return
          </CharString>
          <CharString index="191">
            49 -52 -49 callgsubr
            return
          </CharString>
          <CharString index="192">
            -53.99 return
          </CharString>
          <CharString index="193">
            12.98 return
          </CharString>
          <CharString index="194">
            -76.99 return
          </CharString>
          <CharString index="195">
            -200.99 return
          </CharString>
          <CharString index="196">
            -90.99 return
          </CharString>
          <CharString index="197">
            43.99 return
          </CharString>
          <CharString index="198">
            125.01 return
          </CharString>
          <CharString index="199">
            189 callgsubr
            -79.02 -46 callgsubr
            return
          </CharString>
          <CharString index="200">
            rmoveto
            711 1138 -128 74 callsubr
            -711 -1138.01 rlineto
            return
          </CharString>
          <CharString index="201">
            -153 -63 callgsubr
            return
          </CharString>
          <CharString index="202">
            hstem
            -6 callsubr
            1167.01 vstem
            return
          </CharString>
          <CharString index="203">
            94 223.01001 105 callgsubr
            hstem
            return
          </CharString>
          <CharString index="204">
            52 30 callsubr
            return
          </CharString>
          <CharString index="205">
            40 -71 callsubr
            return
          </CharString>
          <CharString index="206">
            0 -92 callgsubr
            return
          </CharString>
          <CharString index="207">
            -32 callsubr
            hstem
            return
          </CharString>
          <CharString index="208">
            72.01 return
          </CharString>
          <CharString index="209">
            -46.99 return
          </CharString>
          <CharString index="210">
            58.99 return
          </CharString>
          <CharString index="211">
            -56.02 return
          </CharString>
          <CharString index="212">
            -159.99 return
          </CharString>
          <CharString index="213">
            257.98 return
          </CharString>
          <CharString index="214">
            83.99 return
          </CharString>
          <CharString index="215">
            -280.98 return
          </CharString>
          <CharString index="216">
            -86 callsubr
            -92 callgsubr
            -93 callsubr
            return
          </CharString>
          <CharString index="217">
            -203 -378 -437 hvcurveto
            -97 vlineto
            -308 19 callsubr
            -264 315 return
          </CharString>
          <CharString index="218">
            rmoveto
            113 callgsubr
          </CharString>
          <CharString index="219">
            235 314.98 hvcurveto
            -73 callgsubr
            115 callsubr
            return
          </CharString>
          <CharString index="220">
            hstemhm
            -30 callsubr
            return
          </CharString>
          <CharString index="221">
            108 callgsubr
            -29 callgsubr
            return
          </CharString>
          <CharString index="222">
            328.99 return
          </CharString>
          <CharString index="223">
            149.99 return
          </CharString>
          <CharString index="224">
            -195.99 return
          </CharString>
          <CharString index="225">
            228.99 return
          </CharString>
          <CharString index="226">
            189.99 return
          </CharString>
          <CharString index="227">
            -129.99 return
          </CharString>
          <CharString index="228">
            -147.99 return
          </CharString>
          <CharString index="229">
            52.02 return
          </CharString>
          <CharString index="230">
            34.97 return
          </CharString>
          <CharString index="231">
            vhcurveto
            hintmask 11010101
            -16 callgsubr
            -60 89 75 callsubr
            hhcurveto
            -128 return
          </CharString>
          <CharString index="232">
            33 callgsubr
            rmoveto
            52 39 34 48 48 -39 123 callsubr
            -52 return
          </CharString>
          <CharString index="233">
            1232.99 303 hstem
            return
          </CharString>
          <CharString index="234">
            -87 callgsubr
            hstem
            return
          </CharString>
          <CharString index="235">
            -20 204 -184 43 return
          </CharString>
          <CharString index="236">
            -72 callgsubr
            vhcurveto
            return
          </CharString>
          <CharString index="237">
            hlineto
            -52 callsubr
            return
          </CharString>
          <CharString index="238">
            291.98 hmoveto
            261 hlineto
            -157 91 callgsubr
            rlineto
            return
          </CharString>
          <CharString index="239">
            -66.01 return
          </CharString>
          <CharString index="240">
            -218.99 return
          </CharString>
          <CharString index="241">
            -157.99 return
          </CharString>
          <CharString index="242">
            229.99 return
          </CharString>
          <CharString index="243">
            187.99 return
          </CharString>
          <CharString index="244">
            151.98 return
          </CharString>
          <CharString index="245">
            -26.01 return
          </CharString>
          <CharString index="246">
            32.99 return
          </CharString>
          <CharString index="247">
            63.02 return
          </CharString>
          <CharString index="248">
            -79 164 callsubr
            79 return
          </CharString>
          <CharString index="249">
            -185.02 -23 -78 -100.99 -213 hhcurveto
            return
          </CharString>
          <CharString index="250">
            204.99 -142 106 108 callgsubr
            65 vhcurveto
            return
          </CharString>
          <CharString index="251">
            rmoveto
            117 callsubr
            303 rlineto
            -281.01 hlineto
            return
          </CharString>
          <CharString index="252">
            1233 99 callgsubr
            return
          </CharString>
          <CharString index="253">
            -178 vhcurveto
            6 -406 rmoveto
            -80 -40 return
          </CharString>
          <CharString index="254">
            256 204.98999 256 return
          </CharString>
          <CharString index="255">
            418.98 189 return
          </CharString>
          <CharString index="256">
            -57 callsubr
            hstem
            return
          </CharString>
          <CharString index="257">
            736.99 hlineto
            return
          </CharString>
          <CharString index="258">
            132.99 return
          </CharString>
          <CharString index="259">
            -84.99 return
          </CharString>
          <CharString index="260">
            117.99 return
          </CharString>
          <CharString index="261">
            70.99 return
          </CharString>
          <CharString index="262">
            185.99 return
          </CharString>
          <CharString index="263">
            -220.02 return
          </CharString>
          <CharString index="264">
            165.99 return
          </CharString>
          <CharString index="265">
            -95.99 return
          </CharString>
          <CharString index="266">
            617.98 return
          </CharString>
          <CharString index="267">
            -24.99 return
          </CharString>
          <CharString index="268">
            182.99 return
          </CharString>
          <CharString index="269">
            107.01 return
          </CharString>
          <CharString index="270">
            90.01 return
          </CharString>
          <CharString index="271">
            -49 115 callgsubr
            49 -52 return
          </CharString>
          <CharString index="272">
            50 0 43 855.99 -69 callsubr
            return
          </CharString>
          <CharString index="273">
            0 43 920.99 -82 callgsubr
            hstem
            return
          </CharString>
          <CharString index="274">
            hstem
            17 1332.98 vstem
            return
          </CharString>
          <CharString index="275">
            89.01 return
          </CharString>
          <CharString index="276">
            -67.99 return
          </CharString>
          <CharString index="277">
            119.01 return
          </CharString>
          <CharString index="278">
            317.01 return
          </CharString>
          <CharString index="279">
            108.99 return
          </CharString>
          <CharString index="280">
            101.01 return
          </CharString>
          <CharString index="281">
            269.98 return
          </CharString>
          <CharString index="282">
            190.02 return
          </CharString>
          <CharString index="283">
            73.99 return
          </CharString>
          <CharString index="284">
            214.99 return
          </CharString>
          <CharString index="285">
            517.98 return
          </CharString>
          <CharString index="286">
            48 -38 7 callgsubr
            -48 return
          </CharString>
          <CharString index="287">
            -373.99 -368 -277.01 return
          </CharString>
          <CharString index="288">
            -152 -135 -246 hvcurveto
            -93.99 return
          </CharString>
          <CharString index="289">
            71 -35 vhcurveto
            hintmask 11110010
            -81 return
          </CharString>
          <CharString index="290">
            -92 callgsubr
            rmoveto
            return
          </CharString>
          <CharString index="291">
            -90 callsubr
            vstem
            return
          </CharString>
          <CharString index="292">
            180 180 123 return
          </CharString>
          <CharString index="293">
            -115 94 -89 127 return
          </CharString>
          <CharString index="294">
            182 callsubr
            -36 -52 -65 -88 vvcurveto
            return
          </CharString>
          <CharString index="295">
            -66 callgsubr
            hstem
            return
          </CharString>
          <CharString index="296">
            hstem
            139.98 220.01 return
          </CharString>
          <CharString index="297">
            -71 callgsubr
            249 return
          </CharString>
          <CharString index="298">
            97 callsubr
            hvcurveto
            return
          </CharString>
          <CharString index="299">
            -105 -6 -88 -75 -116 hhcurveto
            return
          </CharString>
          <CharString index="300">
            184.99 return
          </CharString>
          <CharString index="301">
            -55.99 return
          </CharString>
          <CharString index="302">
            70.98 return
          </CharString>
          <CharString index="303">
            -206.99 return
          </CharString>
          <CharString index="304">
            112.99 return
          </CharString>
          <CharString index="305">
            301.02 return
          </CharString>
          <CharString index="306">
            -73.99 return
          </CharString>
          <CharString index="307">
            591.99 return
          </CharString>
          <CharString index="308">
            rmoveto
            52 38 35 47 return
          </CharString>
          <CharString index="309">
            -98.02 return
          </CharString>
          <CharString index="310">
            166.02 return
          </CharString>
          <CharString index="311">
            258.99 return
          </CharString>
          <CharString index="312">
            155 66 callgsubr
            hlineto
            return
          </CharString>
          <CharString index="313">
            hmoveto
            -1082 249 1082 vlineto
            endchar
          </CharString>
          <CharString index="314">
            -48 -54 -71 hvcurveto
            endchar
          </CharString>
        <CharString name=".notdef">
          261 -555 155 callsubr
          90.01999 30 callgsubr
          163 callsubr
          61.99 88.98 127.01 -37 callsubr
          155 callgsubr
          168 callsubr
          65 151.01001 60 90.98999 62.99 89.02 100 88.98999 74 callsubr
          91.99 34 callgsubr
          92.02 70 88.98999 100 89.01001 181 hstemhm
          250.98 200 89.01001 -37 callsubr
          1 callgsubr
          174 callsubr
          -88.98 -37 callsubr
          168 callsubr
          -92 callgsubr
          hintmask 111111111111111101100000
          1106.98 2146 rmoveto
          -856 -2701 856 hlineto
          -207.99 2520 rmoveto
          -89 -178 -100 178 1 callgsubr
          -448 -37 callsubr
          19 callsubr
          100 -175 89 vlineto
          267.02 -348 rmoveto
          -189 178 -92 -448 281 vlineto
          19 callsubr
          -92.02 rmoveto
          1 callgsubr
          -97 -37 callsubr
          hlineto
          194 callgsubr
          -165 rmoveto
          1 callgsubr
          -178 -189 -270 89 19 callsubr
          100 -177.99 -37 callsubr
          vlineto
          448 -162 rmoveto
          -269.98 -448 28 callgsubr
          358.99 179 vlineto
          168 callsubr
          -329.99 rmoveto
          -305.01 -448 305.01 89 -216 174 callsubr
          127 1 callgsubr
          -19 callgsubr
          -92.02 151 vlineto
          194 callgsubr
          -467.01 rmoveto
          -304.98 -448 304.98 vlineto
          hintmask 111100000000001010100000
          358.99 1 callgsubr
          rmoveto
          -269.98 -127.02 174 callsubr
          hlineto
          168 callsubr
          -150.98 rmoveto
          109 callgsubr
          -86 vlineto
          -189 136 callgsubr
          rlineto
          275.01 109 callgsubr
          -448 163 callsubr
          hlineto
          189 30 callgsubr
          rlineto
          -189 163 callsubr
          hlineto
          endchar
        </CharString>
        <CharString name=".null">
          -1090 endchar
        </CharString>
        <CharString name="A">
          -81 callsubr
          167 callsubr
          1078.99 hmoveto
          -104 callgsubr
        </CharString>
        <CharString name="A.smcp">
          -10 callsubr
          95 callsubr
          924 hmoveto
          -103 callsubr
        </CharString>
        <CharString name="AE">
          835 0 160 callgsubr
          137.98999 218.99 93.01 201 401.01001 160 callgsubr
          hstemhm
          943.49 240.99 -211.50002 -32 callgsubr
          hintmask 00000000
          hintmask 11110100
          1219.99 160 callgsubr
          rmoveto
          -18 449.99 rlineto
          532.99 201 hlineto
          hintmask 11111000
          -542 hlineto
          -17 401 rlineto
          640 160 callgsubr
          -647.99 hlineto
          -190 hlineto
          -157 hlineto
          -828.99 50 callsubr
          295.99 hlineto
          182 339.99 rlineto
          hintmask 11110100
          495.99 hlineto
          14 -339.99 rlineto
          165 hlineto
          733 160 callgsubr
          hlineto
          -1290.02 356.99 rmoveto
          hintmask 11111000
          342.02 638.01 139 callgsubr
          -638.01 rlineto
          endchar
        </CharString>
        <CharString name="AE.smcp">
          518 0 197.98 60 196.99 53.01 198 261 198 hstemhm
          736.99 135 callgsubr
          -220.00002 239 hintmask 00000000
          hintmask 10110100
          1003.99 197.98 rmoveto
          -12 310 rlineto
          443 198 hlineto
          hintmask 10111000
          -451.01 hlineto
          -10 261 rlineto
          522 198 -530 hlineto
          -203 hlineto
          -163.99 hlineto
          -618 50 callgsubr
          268 hlineto
          hintmask 11110100
          128 106 callsubr
          rlineto
          377 hlineto
          hintmask 10110100
          10 -257.98 rlineto
          153 hlineto
          624.99 197.98 hlineto
          hintmask 11111000
          -1068 257 rmoveto
          253 511 20 callsubr
          -511 rlineto
          endchar
        </CharString>
        <CharString name="Aacute">
          -81 callsubr
          87 303 167 callsubr
          1041 1845.99 16 callgsubr
          -99 callsubr
          hlineto
          315 -1542.98 rmoveto
          -104 callgsubr
        </CharString>
        <CharString name="Aacute.smcp">
          52 callgsubr
          948.98 1565.98 61 callgsubr
          252 -1262.98 rmoveto
          -103 callsubr
        </CharString>
        <CharString name="Acircumflex">
          -81 callsubr
          102.01001 288.99 167 callsubr
          686 1712.99 rmoveto
          151 122 callgsubr
          rlineto
          198.99 11 hlineto
          -277 -9 callgsubr
          129 callgsubr
          -12.98 196 vlineto
          543 -1558 rmoveto
          -104 callgsubr
        </CharString>
        <CharString name="Acircumflex.smcp">
          -10 callsubr
          844 288.99 95 callsubr
          593.98 1432.99 46 callsubr
          -276.99 -47 callgsubr
          480.01 -1277.99 rmoveto
          -103 callsubr
        </CharString>
        <CharString name="Adieresis">
          -81 callsubr
          102.01001 -32 callgsubr
          hstem
          115 callsubr
          67 callsubr
          vstem
          456.99 1558 rmoveto
          78 50 97 callsubr
          -72 callgsubr
          -50 53 -78 -79 -49 -53 -60 callgsubr
          -18 callgsubr
          49 -52 79 hvcurveto
          461 -2 182 callgsubr
          -72 callgsubr
          -88 callgsubr
          92 callsubr
          -89 callsubr
          -67.01 48.99 -52 79.02 hvcurveto
          -52 callsubr
          -1555.99 rmoveto
          -104 callgsubr
        </CharString>
        <CharString name="Adieresis.smcp">
          -10 callsubr
          844 -32 callgsubr
          hstem
          236.99 67 callsubr
          vstem
          364.99 1277.99 rmoveto
          126 callgsubr
          -38 callsubr
          -94 callgsubr
          -66 48.99 -52 79.01 -42 callgsubr
          98 -1275.99 rmoveto
          -103 callsubr
        </CharString>
        <CharString name="Agrave">
          -81 callsubr
          87 303 167 callsubr
          814 1542.98 -48 callgsubr
          270.99 35 callsubr
          471 -1542.98 rmoveto
          -104 callgsubr
        </CharString>
        <CharString name="Agrave.smcp">
          52 callgsubr
          721.98 1262.98 46 callgsubr
          408 -1262.98 rmoveto
          -103 callsubr
        </CharString>
        <CharString name="Aring">
          -81 callsubr
          71 96 callsubr
          465.98 110.01 222.99 110 vstem
          686.98 1526.99 rmoveto
          127.02 105 callgsubr
          89 115 113.99 -37 callgsubr
          94 -127.02 -127 -94 -94 -113.99 186 callsubr
          hvcurveto
          171 callsubr
          vmoveto
          -72 callgsubr
          45 -52 -61 -59 -45 -51 -60 callgsubr
          -18 callgsubr
          -44.99 52 58 61 193 callgsubr
          191 callsubr
          392 -1844 rmoveto
          -104 callgsubr
        </CharString>
        <CharString name="Aring.smcp">
          -10 callsubr
          812.98999 96 callsubr
          373.98 110 223.01001 110 vstem
          594.98 1246.99 rmoveto
          127 95 89 115 114.01 -95 93.99 -127 -127 -94 -93.99 -114.01 186 callsubr
          hvcurveto
          171 callsubr
          vmoveto
          119 callgsubr
          45 -52 -61 -59 -45 -51 17 callsubr
          -18 callgsubr
          -25 callsubr
          52 58 61 90 callgsubr
          191 callsubr
          329.02 -1564 rmoveto
          -103 callsubr
        </CharString>
        <CharString name="Atilde">
          -81 callsubr
          111 -5 callgsubr
          -77.98 79 callsubr
          317.99 -87 callgsubr
          432.99998 152 hintmask 00000000
          hintmask 11101110
          558.98 1655.99 rmoveto
          hintmask 11110110
          107 33 -89 131 hhcurveto
          127 97 109 149 hvcurveto
          97 callgsubr
          hintmask 11101110
          -16 callgsubr
          -60 89 -108 hhcurveto
          -128 -95 -115 -146 hvcurveto
          151 -8 rlineto
          61 40 41 50 vhcurveto
          hintmask 11110110
          520 -1655.99 rmoveto
          -104 callgsubr
        </CharString>
        <CharString name="Atilde.smcp">
          -10 callsubr
          852.98999 65 callgsubr
          225.99 -87 callgsubr
          432.99998 152 hintmask 00000000
          hintmask 11011100
          466.98 1375.99 rmoveto
          hintmask 11101100
          162 callsubr
          33 -89 131 hhcurveto
          127 97 109.02 149 hvcurveto
          97 callgsubr
          hintmask 11011100
          -90 callgsubr
          -36 callgsubr
          vhcurveto
          hintmask 11101100
          457.02 -1375.99 rmoveto
          -103 callsubr
        </CharString>
        <CharString name="B">
          205 99 callsubr
          445.98999 119 callsubr
          403.01 -57 callsubr
          114 callgsubr
          492.99 258 -224 258 hintmask 11110100
          944.99 757.99 rmoveto
          hintmask 11111000
          139 57 72 114.01 133 vvcurveto
          272 -190 122 -320 vhcurveto
          -500 -78 callgsubr
          98.02 hlineto
          438.99 hlineto
          hintmask 11110100
          318 189 146.98 279 151 -77 137 -168 44 hvcurveto
          -299 489 rmoveto
          hintmask 11111000
          172 80 -59 8 callsubr
          -128 -92 151 callgsubr
          -158 hvcurveto
          -243 403 hlineto
          hintmask 11110100
          278 -1039 rmoveto
          -278 446 289 hlineto
          169 69 -86 -142 -129 152 callsubr
          1 callgsubr
          -164 hvcurveto
          endchar
        </CharString>
        <CharString name="B.smcp">
          32 0 -99 callsubr
          304 173.99 286.01 -82 callgsubr
          hstemhm
          -13 callsubr
          395 -64 callgsubr
          -220.99 -105 callsubr
          hintmask 11110100
          832 599 rmoveto
          hintmask 11111000
          121 45 57 17 callgsubr
          104 vvcurveto
          218 -175 102.99 -286 vhcurveto
          -432.99 -71 callgsubr
          93.99 hlineto
          380 hlineto
          hintmask 11110100
          285 163 -17 callgsubr
          227 112 -62 116 -143.99 36 hvcurveto
          hintmask 11111000
          -271.02 365 rmoveto
          131 68 -43 -103 -92 -70 -48 87 callgsubr
          hvcurveto
          -199.99 286 hlineto
          hintmask 11110100
          225 -764 rmoveto
          -225 304 234.99 hlineto
          135 54 -61 -97 -84 -65 -62 -134 hvcurveto
          endchar
        </CharString>
        <CharString name="C">
          248 -20 210 1075.99 210 hstem
          42 callsubr
          197 callgsubr
          vstem
          1260.99 476 rmoveto
          -258 hlineto
          142 callsubr
          -50 callgsubr
          -420.99 228 -269 361 357.01 119 callsubr
          210 286 25 vhcurveto
          endchar
        </CharString>
        <CharString name="C.smcp">
          63 -93 callgsubr
          796.99 200 hstem
          -30 callsubr
          vstem
          1093 389.98 rmoveto
          11 callsubr
          hlineto
          -137 202 callgsubr
          -70 -69 -168 hhcurveto
          -64 callsubr
          -347.02 196 -214.97 318.01 308 173 -5 callgsubr
          238.99 20.01 vhcurveto
          endchar
        </CharString>
        <CharString name="C.ss06">
          311 -24 callsubr
          207.97 1081.01001 149 callsubr
          104.98 150 callgsubr
          1316.99 476 rmoveto
          -258.99 hlineto
          -180 138 callsubr
          -86 123 callgsubr
          -206 hhcurveto
          -227 -148.99 201 313 hvcurveto
          55 vlineto
          313 145 199 225 208.02 91 -111 -184.02 -31 callgsubr
          vhcurveto
          259.02 hlineto
          198 callsubr
          -30 -203 203 -351 hhcurveto
          -366 -263 -282.01 -441 hvcurveto
          -53 vlineto
          -441 268 108 callsubr
          367 351.01 19 callgsubr
          198.98 298 30 vhcurveto
          endchar
        </CharString>
        <CharString name="Ccedilla">
          248 -456 142 172 332 -205.99 43 -41.01 43 1236.99 210 hstemhm
          42 callsubr
          197 callgsubr
          354.02 -69 callsubr
          hintmask 00000000
          hintmask 11001100
          688.99 119 callsubr
          rmoveto
          -50 callgsubr
          hintmask 10011100
          -383 189 -257 304.99 75 callgsubr
          vhcurveto
          hintmask 11001110
          -29 -128 -29 callsubr
          199 callsubr
          13 vhcurveto
          -6 callsubr
          41 301 31.98 161.02 199 23 261 rlinecurve
          -258 hlineto
          hintmask 11001100
          142 callsubr
          endchar
        </CharString>
        <CharString name="Ccedilla.smcp">
          63 -450 142 172 320 -195 43 -42 43 947.99 200 113 callsubr
          295.01 -69 callsubr
          hintmask 00000000
          hintmask 11001100
          200 callsubr
          102 callgsubr
          rmoveto
          -64 callsubr
          hintmask 10011100
          -312.02 158 -205.99 264 -23 callgsubr
          vhcurveto
          hintmask 11001110
          -29 -126.02 rlineto
          105 -36 callsubr
          193 callgsubr
          180 callgsubr
          216.99 2 callgsubr
          107 callgsubr
          134.98 hvcurveto
          hintmask 10101110
          106 callgsubr
          -76 193 callgsubr
          -74 13 vhcurveto
          -6 callsubr
          40 252 29.98 141 157 18 214 rlinecurve
          11 callsubr
          hlineto
          hintmask 11001100
          -137 202 callgsubr
          -70 -69 -168 hhcurveto
          endchar
        </CharString>
        <CharString name="D">
          247 0 207.99 1038.98999 3 callsubr
          -1455.98 -35 callgsubr
          1039 165 callgsubr
        </CharString>
        <CharString name="D.smcp">
          56 0 -99 callsubr
          764 -28 callgsubr
          454 -98 callsubr
          496.99 27 callsubr
          -132 hlineto
          -249 -71 callgsubr
          -44 callsubr
          764 167 callgsubr
        </CharString>
        <CharString name="D.ss06">
          322 131 callgsubr
          137 callsubr
          -84 callgsubr
          632.99 21 callgsubr
          vstem
          599 4 callsubr
          -188 hlineto
          -78 callsubr
          2 callgsubr
          hlineto
          322.99 hlineto
          426 290 285.98 421.01 hvcurveto
          41 vlineto
          421 -292.98 286.98 -412 vhcurveto
          444.99 -748.99 rmoveto
          -290 122 callgsubr
          -209 -310 vhcurveto
          -168 1039 179 hlineto
          296 158 -197 199 callgsubr
          hvcurveto
          endchar
        </CharString>
        <CharString name="E">
          68 0 -63 callsubr
          49 callsubr
          404.99 207.99 -96 callsubr
        </CharString>
        <CharString name="E.smcp">
          -67 callgsubr
          146 callgsubr
          364.99 -99 callsubr
          -91 callgsubr
        </CharString>
        <CharString name="Eacute">
          68 0 -63 callsubr
          94.01 303 49 callsubr
          983 1852.99 16 callgsubr
          -99 callsubr
          hlineto
          -301 -1342 -96 callsubr
        </CharString>
        <CharString name="Eacute.smcp">
          -67 callgsubr
          97.99998 303 146 callgsubr
          901 1565.98 16 callgsubr
          -99 callsubr
          hlineto
          -258.99 -1063 -91 callgsubr
        </CharString>
        <CharString name="Ecircumflex">
          68 0 -63 callsubr
          109.02 288.99 49 callsubr
          628 1719.99 rmoveto
          41 callgsubr
          198.99 11 hlineto
          -277 -9 callgsubr
          129 callgsubr
          -12.99 196 vlineto
          -65 callgsubr
          -1357 -96 callsubr
        </CharString>
        <CharString name="Ecircumflex.smcp">
          -67 callgsubr
          2 callgsubr
          288.99 146 callgsubr
          546 1432.99 46 callsubr
          153 callgsubr
          -47 callgsubr
          -30.99 -1078 -91 callgsubr
        </CharString>
        <CharString name="Edieresis">
          68 0 -63 callsubr
          109.02 237.99 114 callgsubr
          -133.99998 67 callsubr
          hintmask 00000000
          hintmask 11110110
          398.99 1565 rmoveto
          78 50 97 callsubr
          119 callgsubr
          -50 53 -78 37 callgsubr
          17 callsubr
          -18 callgsubr
          84 callsubr
          hvcurveto
          461 -2 182 callgsubr
          -88 callgsubr
          -72 callgsubr
          92 callsubr
          -60 callgsubr
          -89 callsubr
          48.99 -52 79.02 hvcurveto
          hintmask 11101000
          -455 -1355 -96 callsubr
        </CharString>
        <CharString name="Edieresis.smcp">
          -67 callgsubr
          2 callgsubr
          15 callgsubr
          -13 callsubr
          -176 67 callsubr
          hintmask 00000000
          hintmask 11110110
          316.98 1277.99 rmoveto
          -26 callsubr
          66 -53 callsubr
          -52 callgsubr
          -66 84 callsubr
          -42 callgsubr
          hintmask 11101000
          -413 -1076 -91 callgsubr
        </CharString>
        <CharString name="Egrave">
          68 0 -63 callsubr
          94.01 303 49 callsubr
          756 1549.99 -48 callgsubr
          271 35 callsubr
          -145 -1342 -96 callsubr
        </CharString>
        <CharString name="Egrave.smcp">
          -67 callgsubr
          97.99998 303 146 callgsubr
          674 1262.98 -48 callgsubr
          270.99 35 callsubr
          -103 -1063 -91 callgsubr
        </CharString>
        <CharString name="Eth">
          247 99 callsubr
          442 174 callgsubr
          423.99998 3 callsubr
          -633 -155.97 -173 155.97 -649.99 -35 callgsubr
          442 258 173 -258 424 165 callgsubr
        </CharString>
        <CharString name="Eth.smcp">
          56 0 -99 callsubr
          298 174 callgsubr
          293.01 -28 callgsubr
          454 -98 callsubr
          496.99 27 callsubr
          -132 hlineto
          -249 -494 -208.99 -173 -57 callsubr
          -497.99 -44 callsubr
          298 215 173 -215 293 167 callgsubr
        </CharString>
        <CharString name="Euro">
          76 -20 -57 callgsubr
          338.98999 142 128.01001 92 callgsubr
          330.01 -92 callgsubr
          hstem
          264.99 204 callsubr
          vstem
          843 175 callgsubr
          rmoveto
          -187 -124 121 callgsubr
          243 -7 hvcurveto
          352.01 142 -353.01 128 353.01 92 callgsubr
          -351 hlineto
          230 14.01 153 callsubr
          100 188 hhcurveto
          69 101 callsubr
          -14 -19.01 59 hvcurveto
          29 210 rlineto
          19 -79.02 87 callsubr
          12 -83 hhcurveto
          -323.01 -227 -183 -355 -19.99 hvcurveto
          -172 8 callsubr
          171 -128 -171 -142 171 hlineto
          -363.01 9.99 230.02 -182.98 321 hhcurveto
          87 85 11.02 18.98 77 hvcurveto
          -29 209 rlineto
          -21.01 -62.02 -69 -11 -23 callsubr
          hhcurveto
          endchar
        </CharString>
        <CharString name="Euro.smcp">
          -73 -93 callgsubr
          201.98 116 callsubr
          168 callsubr
          116 callsubr
          208.02 -99 callsubr
          hstem
          215.98 -94 callsubr
          vstem
          718.99 102 callgsubr
          rmoveto
          -144 -79.02 68 134 -23 hvcurveto
          377 150 -384.99 89 384.99 150 -377 hlineto
          136 23 78.01 72 10 callgsubr
          hhcurveto
          79.02 58 -8 -20.01 70 hvcurveto
          22 195 rlineto
          32 callsubr
          -81 -63 12 -85.02 hhcurveto
          -280 -177.99 -147 -261 -36 hvcurveto
          -152 -150 145 -89 -145 -150 151 hlineto
          -257.98 34.02 180.98 -143.99 282.01 hhcurveto
          107 callsubr
          68.02 11 20 callsubr
          75 hvcurveto
          -27 19 callgsubr
          rlineto
          -15.99 138 callgsubr
          85 callsubr
          -11 -78 hhcurveto
          endchar
        </CharString>
        <CharString name="F">
          35 0 43 570.99 -92 callgsubr
          424.99998 -30 callgsubr
          vstem
          1073.99 1246.99 rmoveto
          209 -669 vlineto
          -259.01 76 callsubr
          613.99 584.99 208 -584.99 425 hlineto
          endchar
        </CharString>
        <CharString name="F.smcp">
          -124 0 43 428.98 201 291.01001 -28 callgsubr
          vstem
          926.99 963.99 rmoveto
          -82 callgsubr
          -562 vlineto
          -249 190 callsubr
          471.98 496.99 201 -496.99 291 hlineto
          endchar
        </CharString>
        <CharString name="G">
          305 -20 -92 callgsubr
          365.98999 196 518.01001 -92 callgsubr
          hstem
          104.98 261.02 641.98 150 callgsubr
          1267 -90 callsubr
          rmoveto
          561.01 -555.01 33 callsubr
          296 108 callsubr
          vlineto
          -36 -34 -66 -49 -170.99 hhcurveto
          -232 -139 175 171 callsubr
          hvcurveto
          97 vlineto
          313 111.99 178 233 195 82 123 callgsubr
          -150 24 vhcurveto
          254 hlineto
          272 -35 -167 195 -358.01 hhcurveto
          -374.99 -226.02 -256 -445.01 hvcurveto
          -37 callgsubr
          vlineto
          -445.01 255.02 -254.99 367.99 325.02 151 128 81 63 vhcurveto
          endchar
        </CharString>
        <CharString name="G.smcp">
          100 -93 callgsubr
          -64 callgsubr
          181 366 200 hstem
          82.98 -64 callgsubr
          517.01 -94 callsubr
          vstem
          1099 145.98 rmoveto
          469.01 -494 -181 244.99 -195 vlineto
          -23 -28 -56 124 callgsubr
          -129 hhcurveto
          -194 -110 124 239.99 hvcurveto
          70 vlineto
          239 98 124 182 158 65 -73.01 -116 20 callsubr
          vhcurveto
          243.02 hlineto
          228 -28.02 -143 161 -321 hhcurveto
          -319 -205 -205 -360 hvcurveto
          138 callgsubr
          vlineto
          -360 220 -203.98 322 276.01 140 34 callgsubr
          200 callgsubr
          58 vhcurveto
          endchar
        </CharString>
        <CharString name="G.ss06">
          351 -24 callsubr
          207.97 359.99 195 526.02 149 callsubr
          104.98 -84 callgsubr
          695.99 258 vstem
          1317.99 136 callsubr
          rmoveto
          554 -545 -195.02 286.98 -279 vlineto
          -35.99 -32.99 -88 -25 callsubr
          -159 hhcurveto
          -244 101 callgsubr
          200 319 hvcurveto
          40 vlineto
          319 9 callgsubr
          203.02 225.02 204 -37 callsubr
          123 callgsubr
          -150 27.02 vhcurveto
          254 hlineto
          272 -36 16 callsubr
          196.02 -366.02 hhcurveto
          -366.98 -267.02 -281 -452 hvcurveto
          -38 vlineto
          -446 290.02 108 callsubr
          384.99 308.02 169.98 127.98 81 60 vhcurveto
          endchar
        </CharString>
        <CharString name="H">
          365 0 43 601.99 -57 callgsubr
          563.03998 40.96 -54 callsubr
          642.99 258 vstem
          1047.98 4 callsubr
          -604 -642.99 604 -259.01 76 callsubr
          645 642.99 -645 258 -68 callgsubr
          vlineto
          endchar
        </CharString>
        <CharString name="H.smcp">
          155 0 43 428.98 201 7 callsubr
          515.98999 -98 callsubr
          880.99 27 callsubr
          -491.99 -516 491.99 -249 190 callsubr
          471.98 516 -471.98 249 -65 callsubr
          vlineto
          endchar
        </CharString>
        <CharString name="I">
          24 callsubr
          179 callgsubr
          419.98 hmoveto
          -43 callsubr
        </CharString>
        <CharString name="I.smcp">
          -579 0 43 14 callgsubr
          379.99 hmoveto
          -12 callgsubr
        </CharString>
        <CharString name="Iacute">
          24 callsubr
          94 303 179 callgsubr
          362.99 1852.99 rmoveto
          -10 callgsubr
          277.02 303 rlineto
          -225.02 -1852.99 rmoveto
          -43 callsubr
        </CharString>
        <CharString name="Iacute.smcp">
          -579 0 43 1219.98 303 14 callgsubr
          115 callsubr
          1565.98 rmoveto
          -195 -11 callsubr
          -230.99 -1565.98 rmoveto
          -12 callgsubr
        </CharString>
        <CharString name="Icircumflex">
          24 callsubr
          109.01001 288.99 179 callgsubr
          640 1576 rmoveto
          153 callgsubr
          -29 callgsubr
          -272.98 129 callgsubr
          -12.99 195.97 vlineto
          150.02 205 callsubr
          156 callsubr
          -1565 rmoveto
          -43 callsubr
        </CharString>
        <CharString name="Icircumflex.smcp">
          -579 0 43 1234.99 288.99 14 callgsubr
          605.98 1288.99 rmoveto
          114 callsubr
          -272.99 -35 callsubr
          -226 -1277.99 rmoveto
          -12 callgsubr
        </CharString>
        <CharString name="Idieresis">
          24 callsubr
          109.01001 15 callgsubr
          -89 callsubr
          255.98 -26.99998 106 callsubr
          -25.98 256 hintmask 00000000
          hintmask 11110100
          -45 callsubr
          1803 rmoveto
          -78.99 -46 callgsubr
          17 callsubr
          -18 callgsubr
          48.99 45 callsubr
          65.99 119 callgsubr
          -4 callsubr
          hvcurveto
          461 -1 rmoveto
          -79.01 -46 callgsubr
          -60 callgsubr
          -89 callsubr
          -85 callsubr
          149 callgsubr
          -88 callgsubr
          -72 callgsubr
          -50 53 -89 callgsubr
          hvcurveto
          hintmask 11101000
          31 callsubr
          -1801.99 rmoveto
          -43 callsubr
        </CharString>
        <CharString name="Idieresis.smcp">
          -579 0 43 1234.99 15 callgsubr
          -101 256 -24.01 -105 callsubr
          -19.99 256 hintmask 00000000
          hintmask 11101000
          139 callgsubr
          1515.99 83 callsubr
          -66 84 callsubr
          126 callgsubr
          -38 callsubr
          hvcurveto
          461 -1 rmoveto
          -94 callgsubr
          17 callsubr
          -85 callsubr
          149 callgsubr
          119 callgsubr
          -38 callsubr
          hvcurveto
          hintmask 11010000
          -108.01 -1514.99 rmoveto
          -12 callgsubr
        </CharString>
        <CharString name="Igrave">
          24 callsubr
          94 303 179 callgsubr
          418 1549.99 -48 callgsubr
          270.98 35 callsubr
          208 -1549.99 rmoveto
          -43 callsubr
        </CharString>
        <CharString name="Igrave.smcp">
          -579 0 43 1219.98 303 14 callgsubr
          384 1262.98 -48 callgsubr
          270.98 35 callsubr
          202 -1262.98 rmoveto
          -12 callgsubr
        </CharString>
        <CharString name="J">
          48 6 callsubr
          hstem
          193 callgsubr
          204 callsubr
          436.99998 258 vstem
          740.99 4 callsubr
          -1019 vlineto
          -161 0 callgsubr
          -88 -129 -129 -89.01 63 167.02 vhcurveto
          -258.99 hlineto
          -299.01 -99 callsubr
          -138.99 164 callgsubr
          275 202 167.99 289 vhcurveto
          1019 vlineto
          endchar
        </CharString>
        <CharString name="J.smcp">
          -107 -93 callgsubr
          hstem
          35.98 -64 callgsubr
          336.02 -64 callgsubr
          vstem
          622 27 callsubr
          -796 vlineto
          -122 -60 -63 -98 -111 -60 callgsubr
          -36 callgsubr
          120.02 vhcurveto
          -250 hlineto
          -253 178.02 -116.98 250 230 178 10 callgsubr
          135 callgsubr
          vhcurveto
          796 vlineto
          endchar
        </CharString>
        <CharString name="K">
          203 -67 callsubr
          145.98 259.01 vstem
          997.99 hmoveto
          308 hlineto
          -566 811.99 538.01 643.99 rlineto
          -315 hlineto
          -418 -506 -140 -174 rlineto
          680 -259.01 76 callsubr
          449.99 vlineto
          164 174 rlineto
          endchar
        </CharString>
        <CharString name="K.alt">
          231 0 43 576.99 229 566.02998 -85 callgsubr
          137 callsubr
          150 callgsubr
          1018.98 hmoveto
          311.01 hlineto
          -537 759.99 493 695.99 rlineto
          -318 hlineto
          -419 -606.99 rlineto
          -138 606.99 -259.01 76 callsubr
          619.99 -18 callsubr
          hlineto
          endchar
        </CharString>
        <CharString name="K.alt2">
          246 -67 callsubr
          137 callsubr
          150 callgsubr
          1299.99 hmoveto
          -631.99 739.98 596.99 716 rlineto
          -321 hlineto
          -528 -641 rlineto
          -5 641 -259.01 76 callsubr
          664.99 hlineto
          567.99 -664.99 rlineto
          endchar
        </CharString>
        <CharString name="K.smcp">
          27 206 callgsubr
          vstem
          832.98 hmoveto
          298 hlineto
          -462.99 643.99 442 520.99 rlineto
          -309 hlineto
          -327 -377 -109 -134 rlineto
          511 -249 190 callsubr
          339.99 vlineto
          135 130 rlineto
          endchar
        </CharString>
        <CharString name="L">
          19 99 callsubr
          1207.02998 40.96 49 callsubr
          404.99 183 callsubr
          196 callgsubr
          4 callgsubr
          vlineto
          727 -92 callgsubr
          hlineto
          endchar
        </CharString>
        <CharString name="L.smcp">
          -136 0 -99 callsubr
          146 callgsubr
          364.99 -99 callsubr
          rmoveto
          965 -249 -71 callgsubr
          173 vlineto
          628 -99 callsubr
          hlineto
          endchar
        </CharString>
        <CharString name="M">
          703 0 43 1073.99 338.98 -40.95001 40.96 114 callgsubr
          981.99 258 hintmask 10111000
          1644.99 4 callsubr
          -336 hlineto
          -413 -1107.99 -414 1107.99 rlineto
          -116 hlineto
          156 callsubr
          76 callsubr
          470 hlineto
          138 callsubr
          646 424 -1116 rlineto
          195 callgsubr
          hlineto
          hintmask 11011000
          424 1117 -25 -647 rlineto
          -470 258 vlineto
          endchar
        </CharString>
        <CharString name="M.smcp">
          453 206 callgsubr
          811.98999 -98 callsubr
          1425.98 27 callsubr
          -326 hlineto
          -19 callsubr
          -834.99 -330 834.99 rlineto
          -115.02 hlineto
          -209.99 190 callsubr
          304.98 hlineto
          138 callsubr
          571 346.01 -875.99 rlineto
          74 callgsubr
          hlineto
          347.02 879.98 138 callsubr
          -575 rlineto
          -304.98 249 vlineto
          endchar
        </CharString>
        <CharString name="N">
          364 -67 callsubr
          145.98 259.01 642.99 257 vstem
          1304.99 hmoveto
          -5 callsubr
        </CharString>
        <CharString name="N.smcp">
          154 206 callgsubr
          514.98999 -98 callsubr
          1128.98 hmoveto
          -15 callsubr
        </CharString>
        <CharString name="Ntilde">
          364 -13 callgsubr
          111 -5 callgsubr
          -77.98 166.99 114 callgsubr
          -46.99998 -87 callgsubr
          433.01 137 callsubr
          -45.99 257 hintmask 00000000
          hintmask 11101010
          1093.98 1824.99 rmoveto
          -151.99 12 rlineto
          -62 -40.02 -41 -51 124 callsubr
          -95 -115 -146 hvcurveto
          151 -8 rlineto
          61 40 41 50 vhcurveto
          hintmask 11101001
          158 callgsubr
          181 callgsubr
          hintmask 11101010
          127 97 109 149 hvcurveto
          hintmask 11101001
          211 -1824.99 rmoveto
          -5 callsubr
        </CharString>
        <CharString name="Ntilde.smcp">
          154 0 43 1243.98 65 callgsubr
          -13 callsubr
          -108.99 -87 callgsubr
          432.98999 152 -112 -105 callsubr
          hintmask 00000000
          hintmask 11010100
          991.99 1544.99 rmoveto
          97 callgsubr
          hintmask 10101010
          -90 callgsubr
          -36 callgsubr
          vhcurveto
          hintmask 11010010
          162 callsubr
          181 callgsubr
          hintmask 11010100
          127 34 callgsubr
          109.02 149 hvcurveto
          hintmask 11010010
          137 -1544.99 rmoveto
          -15 callsubr
        </CharString>
        <CharString name="O">
          -58 callsubr
          -40 callsubr
          1312.99 691 -107 callsubr
        </CharString>
        <CharString name="O.smcp">
          -83 callsubr
          hstem
          -54 callgsubr
          vstem
          1136.99 556.99 -105 callgsubr
        </CharString>
        <CharString name="O.ss06">
          413 38 callgsubr
          706.99 rmoveto
          42 vlineto
          418 -272.02 310 180 callsubr
          -310 -418 vhcurveto
          -42 vlineto
          -419 279.02 -308.98 367.98 374.01 270 308.98 419 vhcurveto
          -257 90 callsubr
          rmoveto
          75 callgsubr
          vlineto
          -299.01 -154 -217.99 -233 -226 -163 177 callgsubr
          299.01 vhcurveto
          90 callsubr
          vlineto
          297 161 217 226.02 232 157 -217 -297 vhcurveto
          endchar
        </CharString>
        <CharString name="OE">
          884 -24 callsubr
          -99 callsubr
          -179 -63 callsubr
          -178.99 200 hstemhm
          42 callsubr
          -94 callsubr
          539.00002 258 hintmask 01110110
          1146 183 callsubr
          440 594.99 204 -594.99 395 690 209 -690 vlineto
          9 callsubr
          hlineto
          hintmask 10101110
          11 1 callgsubr
          -100 10.02 -101 hhcurveto
          -347 -236 -244 -353.02 hvcurveto
          -303.98 vlineto
          -353.02 238 -243.98 347.01 vhcurveto
          hintmask 01110110
          162 callgsubr
          98.02 11 9.99 -37 callsubr
          hvcurveto
          104 hlineto
          766.02 -92 callgsubr
          hlineto
          hintmask 10101110
          -1494 368.01 rmoveto
          305.99 vlineto
          262 128.99 133 205 101 callsubr
          69 -6 -8.99 64 vhcurveto
          -1069.02 vlineto
          -36 callsubr
          -64 -68 -6 -71 hhcurveto
          -205 29 callsubr
          134 263 hvcurveto
          endchar
        </CharString>
        <CharString name="Oacute">
          -58 callsubr
          66.99998 303 -40 callsubr
          780.98 1845.99 rmoveto
          -10 callgsubr
          164 callgsubr
          303 rlineto
          250 -1154.99 -107 callsubr
        </CharString>
        <CharString name="Oacute.smcp">
          -83 callsubr
          82 303 hstem
          -54 callgsubr
          vstem
          680 1565.98 rmoveto
          127 callgsubr
          277 303 rlineto
          175 -1008.99 -105 callgsubr
        </CharString>
        <CharString name="Ocircumflex">
          -58 callsubr
          82.01 288.99 -40 callsubr
          1058 -21 callsubr
          255 -867 -107 callsubr
        </CharString>
        <CharString name="Ocircumflex.smcp">
          -83 callsubr
          97.01001 100 callsubr
          -54 callgsubr
          vstem
          956.99 1288.99 rmoveto
          -276.99 -47 callgsubr
          150 205 callsubr
          180 -721 -105 callgsubr
        </CharString>
        <CharString name="Odieresis">
          -58 callsubr
          82.01 15 callgsubr
          42 callsubr
          260.01 -9.01 256 205.01001 256 -15 21 callgsubr
          hintmask 00000000
          hintmask 11101100
          478.99 1795.99 rmoveto
          -79 -49 -53 -60 callgsubr
          -18 callgsubr
          49 -52 79 78 50 97 callsubr
          -72 callgsubr
          -50 53 -78 hvcurveto
          461 -1 rmoveto
          141 callsubr
          53 callsubr
          hvcurveto
          hintmask 11010010
          373 -1104 -107 callsubr
        </CharString>
        <CharString name="Odieresis.smcp">
          -83 callsubr
          97.01001 237.99 113 callsubr
          -75.99 147 callsubr
          -77.98999 -77 callsubr
          hintmask 00000000
          hintmask 11101100
          378 1515.99 rmoveto
          -94 callgsubr
          -66 -85 callsubr
          126 callgsubr
          -38 callsubr
          hvcurveto
          460.99 -1 83 callsubr
          17 callsubr
          44 callsubr
          119 callgsubr
          -53 callsubr
          hvcurveto
          hintmask 11010010
          298 -958 -105 callgsubr
        </CharString>
        <CharString name="Ograve">
          -58 callsubr
          66.99998 303 -40 callsubr
          835.99 1542.98 144 callsubr
          271 35 callsubr
          683 -851.99 -107 callsubr
        </CharString>
        <CharString name="Ograve.smcp">
          -83 callsubr
          82 303 hstem
          -54 callgsubr
          vstem
          734.99 1262.98 46 callgsubr
          607.99 -705.99 -105 callgsubr
        </CharString>
        <CharString name="Oslash">
          322 -20 212.99 1069 213.99 hstem
          104 21 callgsubr
          693 21 callgsubr
          vstem
          1155.99 1277.99 rmoveto
          145 240 rlineto
          -169 hlineto
          -85 -140 rlineto
          64 -94 133 callgsubr
          34 -129 hhcurveto
          -355.99 -250 -270 -442 hvcurveto
          80 callgsubr
          -237.02 -72 callsubr
          -187.99 122 -123 vhcurveto
          -144 -238 rlineto
          74 callgsubr
          hlineto
          90 34 callsubr
          rlineto
          -48 86 100 21 callsubr
          110 hhcurveto
          362 243 269 442 hvcurveto
          51 callgsubr
          216 -59 175 -16 callgsubr
          123 vhcurveto
          -792 -587 rmoveto
          75 vlineto
          322.99 18 callsubr
          66 callsubr
          88 74 callsubr
          -28.02 85 callsubr
          56 vhcurveto
          -495 -817.01 rlineto
          75 callgsubr
          81 -24 110 137.02 vvcurveto
          693 hmoveto
          -323.02 -124 -175 -221 -69 -60 18 35 -51 vhcurveto
          482 797 rlineto
          28 199 callsubr
          15.01 -93 -110 vvcurveto
          endchar
        </CharString>
        <CharString name="Oslash.smcp">
          -83 callsubr
          -162 192 hstemhm
          -54 callgsubr
          hintmask 00000000
          hintmask 10111000
          997.99 1018.98 rmoveto
          134 192 rlineto
          -164 hlineto
          hintmask 11011000
          -74 -105.99 rlineto
          50 -80 202 callsubr
          26 -109 hhcurveto
          -312 -217 -218 -356 hvcurveto
          -50 vlineto
          -176 53 -142 92 -98 vhcurveto
          -135.99 -196.97 rlineto
          163.99 hlineto
          78.01 111.98 rlineto
          -47 -49 callgsubr
          95 -24.98 106 hhcurveto
          314 214 216.98 356 hvcurveto
          50 vlineto
          hintmask 10111000
          173 -51 callgsubr
          140 -89 99 vhcurveto
          hintmask 11011000
          -672.01 -461.99 rmoveto
          52 vlineto
          239 105 132 176 65 55 -18 -34 44 vhcurveto
          -406 -584 rlineto
          138 callsubr
          57.02 -13 154 callsubr
          156 callgsubr
          vvcurveto
          563.02 hmoveto
          -238 -103.02 -135 16 callsubr
          -61 85 callsubr
          17 31 -43 vhcurveto
          404 580 rlineto
          22 -55 12 -68 -80 vvcurveto
          endchar
        </CharString>
        <CharString name="Otilde">
          -58 callsubr
          90.99998 -5 callgsubr
          -77.98 79 callsubr
          42 callsubr
          260.01 -20.01 -87 callgsubr
          433.02 152 -23 21 callgsubr
          hintmask 00000000
          hintmask 11101010
          1076 1824.99 rmoveto
          148 callgsubr
          -51.02 124 callsubr
          -95.01 -115 -146 hvcurveto
          151 -8 rlineto
          61 40 41 116 callgsubr
          vhcurveto
          hintmask 11101001
          158 callgsubr
          33.02 -89 18 callgsubr
          hhcurveto
          hintmask 11101010
          127 97.02 109 149 hvcurveto
          hintmask 11101001
          237 -1134 -107 callsubr
        </CharString>
        <CharString name="Otilde.smcp">
          -83 callsubr
          106 167 -78 166.99 113 callsubr
          -87.00002 -87 callgsubr
          433.01 152 -85.98999 -77 callsubr
          hintmask 00000000
          hintmask 11101010
          974.99 1544.99 rmoveto
          97 callgsubr
          hintmask 11010101
          31 callsubr
          -8 callgsubr
          -37 callsubr
          -108.01 hhcurveto
          -128 -95 -115 -146 hvcurveto
          151 -36 callsubr
          rlineto
          -45 callsubr
          40.02 41 -36 callgsubr
          vhcurveto
          hintmask 11101001
          162 callsubr
          33 -89 18 callgsubr
          hhcurveto
          hintmask 11101010
          127.02 97 109.02 149 hvcurveto
          hintmask 11101001
          162 -988 -105 callgsubr
        </CharString>
        <CharString name="P">
          221 0 43 494.98 -92 callgsubr
          501.01 -30 callgsubr
          572.00002 21 callgsubr
          vstem
          704.98 4 callsubr
          -559 76 callsubr
          537.99 299.99 hlineto
          338 194 170 283 269 -194 19 callgsubr
          -338 hvcurveto
          -710 vmoveto
          199 callgsubr
          501 299.99 hlineto
          193 79.01 -124.01 -133.98 -143 -79.01 -100 -193 hvcurveto
          endchar
        </CharString>
        <CharString name="P.smcp">
          45 0 43 362.99 -82 callgsubr
          357.01 -28 callgsubr
          455.98999 -94 callsubr
          vstem
          602.99 27 callsubr
          -487 190 callsubr
          406 238 hlineto
          293.99 -6 callgsubr
          146 225 224.99 9 callsubr
          163 -293.99 hvcurveto
          -558 vmoveto
          -238 357 238 hlineto
          152 30 callsubr
          -89 -100 -98 -18 callgsubr
          -70 -152 hvcurveto
          endchar
        </CharString>
        <CharString name="Q">
          -58 callsubr
          hstem
          105 callgsubr
          21 callgsubr
          692.99998 260.01 vstem
          1308 -102.99 rmoveto
          11 callsubr
          194.99 rlineto
          156.02 0 callsubr
          93 207.02 273 vvcurveto
          51 callgsubr
          442 -245 270 -363 -356 -249 -270 -442 vhcurveto
          80 callgsubr
          -442 251 -269 356 45 43 4.02 -6 callsubr
          41 vhcurveto
          309 -245 rlineto
          -785.02 944 rmoveto
          75 vlineto
          322.99 178 callgsubr
          -6 callgsubr
          213 221 127 9 callsubr
          -322.99 vhcurveto
          -75 vlineto
          -323.02 -124.99 -175 -221 -213 -134 175 323.02 vhcurveto
          endchar
        </CharString>
        <CharString name="Q.smcp">
          -83 callsubr
          hstem
          75 -105 callsubr
          562.98999 -77 callsubr
          vstem
          1134.98 556.99 rmoveto
          50 vlineto
          356 -215.99 218 -315 -312.02 -216.99 -218 -356 vhcurveto
          -50 vlineto
          -356 219 -216.98 311.99 35 33.02 2.99 5 33 vhcurveto
          264.99 -202 159 139 -205 152.98 rlineto
          131 121 callgsubr
          -95 callgsubr
          164 215 vvcurveto
          -810.99 hmoveto
          52 vlineto
          239 105 132 175 19 callsubr
          105 -132 -239 vhcurveto
          -52 vlineto
          -238 -103 -135 -178 -175.99 -106 135 238 vhcurveto
          endchar
        </CharString>
        <CharString name="Q.ss06">
          415 38 callgsubr
          710.98 rmoveto
          33.02 vlineto
          430 -272.02 303 180 callsubr
          -303 -430 vhcurveto
          -33.02 vlineto
          -430 279.02 -301.98 367.98 46 44 5 -6 callsubr
          140 callgsubr
          vhcurveto
          297 -245 168 150.02 -238 193.98 rlineto
          175 -69 callgsubr
          109.02 222 273 vvcurveto
          -257 hmoveto
          -309.98 -154 -211 -233 -226 -163 211 309.98 vhcurveto
          35 vlineto
          309 161 210 226.02 232 157 -210 -309 vhcurveto
          endchar
        </CharString>
        <CharString name="R">
          193 0 43 514.99 -92 callgsubr
          480.99998 -30 callgsubr
          525.00002 204 callsubr
          vstem
          924 618.99 rmoveto
          -66 callsubr
          70 100 131 197 vvcurveto
          286 -193 152.99 -333.99 vhcurveto
          -516.02 76 callsubr
          558 120 callgsubr
          hlineto
          289.02 -558 rlineto
          278 86 callsubr
          hlineto
          -844 1234 rmoveto
          257 hlineto
          187 81 -37 callgsubr
          -148 -139 -89 -99 -178 hvcurveto
          -258 hlineto
          endchar
        </CharString>
        <CharString name="R.alt">
          257 0 139 callgsubr
          566.98999 208.01 444.99 -57 callsubr
          hstemhm
          137 callsubr
          -84 callgsubr
          526.99 -84 callgsubr
          -246.01 -84 callgsubr
          hintmask 11111000
          1196.99 244 rmoveto
          115 vlineto
          164 -58 128.99 -177 54 vhcurveto
          hintmask 11110100
          156 64 92.02 103 160 vvcurveto
          273 -176 150 -326 vhcurveto
          -556.01 76 callsubr
          593.98 296 hlineto
          hintmask 11111000
          150 81 0 callgsubr
          -147 hvcurveto
          -111 vlineto
          -46 2 121 callsubr
          -45 callsubr
          -52 vhcurveto
          266.02 139 callgsubr
          hlineto
          104 callsubr
          48.99 202 callgsubr
          102.01 66 vvcurveto
          hintmask 11110100
          -514 558 rmoveto
          -272 444.99 287 hlineto
          179 74 -91 -135 -142.99 -80 -76 -188 hvcurveto
          endchar
        </CharString>
        <CharString name="R.smcp">
          30 0 43 378.99 200 342 -28 callgsubr
          421.98999 -98 callsubr
          811.99 485.99 rmoveto
          138 58 86 97 172 vvcurveto
          118 callsubr
          -173 123 -286.98 vhcurveto
          -460 190 callsubr
          421.99 177 callgsubr
          hlineto
          234 -421.99 rlineto
          267 11 hlineto
          -719 953 rmoveto
          211 hlineto
          143.99 -88 callgsubr
          -60 callgsubr
          -105 -104 -71 -18 callgsubr
          -139.98 hvcurveto
          -211 hlineto
          endchar
        </CharString>
        <CharString name="S">
          150 -20 205 1084.98 206 hstemhm
          176 callsubr
          204 callsubr
          -213.99 -84 callgsubr
          527.99 21 callgsubr
          hintmask 11011000
          599 625.99 rmoveto
          250.99 -76 56 -58 -115 vvcurveto
          133 callgsubr
          -87 -89 callgsubr
          9 callsubr
          vhcurveto
          hintmask 11101000
          -178 -135 75 161 callsubr
          hvcurveto
          -258.99 hlineto
          -310.99 291 -152 280.99 316 204 152 246.99 232 122 callgsubr
          134 -326 121 callgsubr
          vhcurveto
          hintmask 11011000
          -206 60 -100.99 200 callgsubr
          107 vvcurveto
          112 81.99 85 175 195 callgsubr
          86 -100 -139 vhcurveto
          257.99 hlineto
          245 -198 200 -327.99 -309 -210 -167 -237.02 -239 204 -122 276 152 callsubr
          vhcurveto
          endchar
        </CharString>
        <CharString name="S.smcp">
          -10 -15.99 136 callsubr
          819.98 189 hstemhm
          61.99 -64 callgsubr
          -209.99 241 418 -105 callsubr
          -242.99 135 callgsubr
          hintmask 11010100
          529 482.98 rmoveto
          59 callsubr
          vhcurveto
          hintmask 11100100
          -155 -98 28 callsubr
          135 hvcurveto
          -250 hlineto
          -261 251 -116.98 244 274 19 callsubr
          122.98 206 143 callsubr
          hintmask 11011000
          110 callgsubr
          145 101 callsubr
          -76 -95 vhcurveto
          249 hlineto
          212 -182 148 -284 -261 -181 -138.02 117 callsubr
          vhcurveto
          hintmask 11010100
          -203 150 -94 164 callgsubr
          17 callsubr
          vhcurveto
          endchar
        </CharString>
        <CharString name="T">
          157 0 43 1203.98 149 callsubr
          492.99 106 callsubr
          vstem
          1204 4 callsubr
          -453.02 hlineto
          -705.99 -209 448 -1246.99 257.99 1246.99 453.02 hlineto
          endchar
        </CharString>
        <CharString name="T.smcp">
          -3 166 callsubr
          415.98 -98 callsubr
          1049.99 27 callsubr
          -385 hlineto
          -629 88 callsubr
          380 -963.99 249 963.99 385 hlineto
          endchar
        </CharString>
        <CharString name="Thorn">
          139 0 43 254.98 200 480 200 237.04 -85 callgsubr
          146.98 -105 callsubr
          510.02 -98 callsubr
          637.99 1177.99 rmoveto
          -242 278 -249 -78 callgsubr
          249 297.98 242 hlineto
          333.99 183 186 254.02 255 -183 185 -333.99 hvcurveto
          -680 vmoveto
          -242 479.99 242 hlineto
          191 77 -116.99 87 callgsubr
          -121 -77 -117 -191 hvcurveto
          endchar
        </CharString>
        <CharString name="Thorn.smcp">
          -55 0 43 161 callsubr
          -82 callgsubr
          357.01 -28 callgsubr
          368 -98 callsubr
          514.99 984.99 rmoveto
          -150 180 -249 190 callsubr
          226 150 hlineto
          293.99 -6 callgsubr
          34 callsubr
          230 220 9 callsubr
          88 callgsubr
          -293.99 hvcurveto
          -558 vmoveto
          -150 357 150 hlineto
          152 66 -86 -95 31 callsubr
          -66 -74 -152 hvcurveto
          endchar
        </CharString>
        <CharString name="U">
          -47 callsubr
          -20 callgsubr
          1216 1455.98 -102 callgsubr
        </CharString>
        <CharString name="U.smcp">
          68 -93 callgsubr
          -39 callgsubr
          1056.99 1164.98 -101 callsubr
        </CharString>
        <CharString name="Uacute">
          -47 callsubr
          87 303 -20 callgsubr
          740.99 1845.99 rmoveto
          -10 callgsubr
          277.02 303 rlineto
          193 -390 -102 callgsubr
        </CharString>
        <CharString name="Uacute.smcp">
          68 -93 callgsubr
          1078.98 303 -39 callgsubr
          648.99 1565.98 rmoveto
          -195 -11 callsubr
          126.02 -401 -101 callsubr
        </CharString>
        <CharString name="Ucircumflex">
          -47 callsubr
          102.01001 288.99 -20 callgsubr
          1017 -21 callsubr
          199 -102.02 -102 callgsubr
        </CharString>
        <CharString name="Ucircumflex.smcp">
          68 -93 callgsubr
          1093.99 288.99 -39 callgsubr
          925.98 1288.99 rmoveto
          -276.99 278 rlineto
          -146 hlineto
          -273 -35 callsubr
          131 -113.01 -101 callsubr
        </CharString>
        <CharString name="Udieresis">
          -47 callsubr
          102.01001 15 callgsubr
          -69 callgsubr
          258 -73.01001 256 205.01001 256 -70.01001 -84 callgsubr
          hintmask 11110010
          437.99 1795.99 rmoveto
          -79 -49 -53 -60 callgsubr
          -18 callgsubr
          49 -52 79 hvcurveto
          hintmask 11101010
          78 50 191 callsubr
          hintmask 11110010
          -72 callgsubr
          -50 53 -78 vhcurveto
          461 -1 rmoveto
          hintmask 11110100
          141 callsubr
          hvcurveto
          hintmask 11110010
          53 callsubr
          hvcurveto
          171 callsubr
          -339.01 -102 callgsubr
        </CharString>
        <CharString name="Udieresis.smcp">
          68 -93 callgsubr
          1093.99 15 callgsubr
          101.99 -77 callsubr
          29 callsubr
          67 callsubr
          -129 -64 callgsubr
          hintmask 11100100
          346.99 1515.99 rmoveto
          -94 callgsubr
          -66 -59 callgsubr
          hintmask 11010100
          126 callgsubr
          hvcurveto
          hintmask 11100100
          -38 callsubr
          vhcurveto
          461 -1 rmoveto
          hintmask 11101000
          -94 callgsubr
          17 callsubr
          -59 callgsubr
          hintmask 11100100
          149 callgsubr
          119 callgsubr
          -38 callsubr
          hvcurveto
          249 -350 -101 callsubr
        </CharString>
        <CharString name="Ugrave">
          -47 callsubr
          87 303 -20 callgsubr
          796 1542.98 -48 callgsubr
          270.99 35 callsubr
          626.02 -87 -102 callgsubr
        </CharString>
        <CharString name="Ugrave.smcp">
          68 -93 callgsubr
          1078.98 303 -39 callgsubr
          704 1262.98 81 callsubr
          559 -98 -101 callsubr
        </CharString>
        <CharString name="V">
          237 -67 callsubr
          17 1294.99 vstem
          1026.99 4 callsubr
          -364 -1132.99 -362 1132.99 rlineto
          -284 hlineto
          519.99 50 callsubr
          60 hlineto
          193 hlineto
          521.99 69 callsubr
          endchar
        </CharString>
        <CharString name="V.smcp">
          60 0 43 -43 15 callgsubr
          -6 callsubr
          1132.99 hintmask 10100000
          878 27 callsubr
          hintmask 01100000
          -286 -854 -18 -65 callgsubr
          -18 76 -284 850.99 rlineto
          -264 hlineto
          439.01 50 callgsubr
          154 callsubr
          hlineto
          184 hlineto
          438.99 68 callgsubr
          endchar
        </CharString>
        <CharString name="W">
          711 -67 callsubr
          46.98 1718 vstem
          1506.98 4 callsubr
          -220 -1089 -269.98 1089 rlineto
          -59 hlineto
          -158 hlineto
          -273 -1085.99 -223 1085.99 rlineto
          -257 hlineto
          334 50 callsubr
          87 hlineto
          164 hlineto
          120 callgsubr
          1053 271.02 -1053 rlineto
          -95 callgsubr
          hlineto
          -6 callgsubr
          hlineto
          333.99 69 callsubr
          endchar
        </CharString>
        <CharString name="W.smcp">
          452 0 43 hstem
          -49 callsubr
          1468.98 vstem
          1267 27 callsubr
          -172.02 -856.99 -210 856.99 rlineto
          -76 hlineto
          -144 hlineto
          -211 -858.99 -173 858.99 rlineto
          -242 hlineto
          281.01 50 callgsubr
          93.98 hlineto
          148 hlineto
          211.99 821.99 212 -821.99 rlineto
          86 hlineto
          156 hlineto
          280 68 callgsubr
          endchar
        </CharString>
        <CharString name="X">
          207 -67 callsubr
          -49 callsubr
          1222 vstem
          649.99 933.99 rmoveto
          -302 521.99 rlineto
          -299.01 hlineto
          439.01 -722 -449 -733.98 rlineto
          302 hlineto
          309 530.98 309 -530.98 rlineto
          302 hlineto
          -449 733.98 438 722 rlineto
          -299.01 hlineto
          endchar
        </CharString>
        <CharString name="X.smcp">
          30 0 43 hstem
          18.98 1081.99 vstem
          550.99 765.99 rmoveto
          -235 398.99 rlineto
          -287.99 hlineto
          373.99 -577.99 -383 -587 rlineto
          290 hlineto
          246 406 250 -406 rlineto
          296 hlineto
          -395 587 373 577.99 rlineto
          -290 hlineto
          endchar
        </CharString>
        <CharString name="Y">
          161 -67 callsubr
          493.99 197 callgsubr
          vstem
          623.98 770.99 -15 callgsubr
        </CharString>
        <CharString name="Y.smcp">
          -3 0 43 hstem
          414.98 -98 callsubr
          1082 1164.98 5 callgsubr
        </CharString>
        <CharString name="Yacute">
          161 -13 callgsubr
          87 303 hstem
          493.99 197 callgsubr
          vstem
          700.99 1845.99 rmoveto
          -10 callgsubr
          164 callgsubr
          303 rlineto
          -359.02 -1075 -15 callgsubr
        </CharString>
        <CharString name="Yacute.smcp">
          -3 0 43 1219.98 303 hstem
          414.98 -98 callsubr
          891.99 1565.98 61 callgsubr
          467 -98 5 callgsubr
        </CharString>
        <CharString name="Z">
          145 131 callgsubr
          -49 callgsubr
          1088 vstem
          395 183 callsubr
          749 1087 rlineto
          -52 callsubr
          -97 vlineto
          -963.01 -209 745 hlineto
          -750 -1081 rlineto
          42 callgsubr
          80 vlineto
          1008 -92 callgsubr
          hlineto
          endchar
        </CharString>
        <CharString name="Z.smcp">
          -23 0 -99 callsubr
          764 -82 callgsubr
          hstem
          64 948.98 vstem
          384.98 -99 callsubr
          rmoveto
          613.01 826 rlineto
          139 -88 vlineto
          -845 88 callsubr
          616 hlineto
          -616.98 -821 rlineto
          -142.99 69 vlineto
          879.99 -99 callsubr
          hlineto
          endchar
        </CharString>
        <CharString name="a">
          -74 callgsubr
          -82 callsubr
          371.00002 -105 callsubr
          hintmask 10110110
          979.99 251.99 -103 callgsubr
          hintmask 10111010
          -98 callgsubr
          hintmask 01110110
          -83 callgsubr
          hintmask 10110110
          -74 callsubr
          hintmask 10111010
          -102 callsubr
        </CharString>
        <CharString name="aacute">
          -74 callgsubr
          84 callgsubr
          -82 callsubr
          371.00002 -105 callsubr
          hintmask 10111011
          919.98 1536 61 callgsubr
          337 -981.01 -104 callsubr
        </CharString>
        <CharString name="acircumflex">
          -74 callgsubr
          146 -32 callsubr
          -82 callsubr
          371.00002 -105 callsubr
          hintmask 10111011
          564.98 1402.98 46 callsubr
          -276.99 -47 callgsubr
          565 -996 -104 callsubr
        </CharString>
        <CharString name="acute">
          -421 126 callsubr
          110.98 476.99 vstem
          307 1536 67 callgsubr
          35 callsubr
          201 hlineto
          275.99 303 rlineto
          endchar
        </CharString>
        <CharString name="acutecomb">
          -1090 126 callsubr
          -675 476.99 vstem
          -480.01 1536 rmoveto
          -194.99 -11 callsubr
          endchar
        </CharString>
        <CharString name="adieresis">
          -74 callgsubr
          146 237.99 -82 callsubr
          -151.99998 67 callsubr
          -194 -105 callsubr
          hintmask 1011100101000000
          335.99 -43 callgsubr
          hintmask 1011100110000000
          461 -2 rmoveto
          77.99 73 callgsubr
          -77.99 -94 callgsubr
          -67.01 -59 callgsubr
          hintmask 1011101001000000
          161 callsubr
          -994 -103 callgsubr
          hintmask 1011110001000000
          -98 callgsubr
          hintmask 0111100101000000
          -83 callgsubr
          hintmask 1011101001000000
          -74 callsubr
          hintmask 1011110001000000
          -102 callsubr
        </CharString>
        <CharString name="ae">
          639 -24 callsubr
          -90 callsubr
          -188.99 -99 callsubr
          289.99 173.99 -169.00002 170 258 200 hstemhm
          195 callsubr
          -94 callsubr
          -216.99998 -77 callsubr
          382.01 244.98 446.02 245.99 hintmask 0110110110000000
          1669.98 611.98 rmoveto
          198 callsubr
          -163 -90 callsubr
          -287.98 vhcurveto
          -135 1 -112.99 -47 -82 -83 rrcurveto
          86 -73.02 -117 43 -144 hhcurveto
          hintmask 0101101110000000
          -270.99 -181 -140 -192 hvcurveto
          248 -19 rlineto
          82 78 69 -69 callgsubr
          106 callgsubr
          64 -23 callsubr
          -118 vhcurveto
          -68 -187 vlineto
          hintmask 0101110110000000
          -311.01 -164 -120.01 -210.99 170 callgsubr
          135 -131.97 245 205 135 -95 callgsubr
          82 154 callsubr
          hvcurveto
          -100 87 178 callgsubr
          -59.98 173 hhcurveto
          200 118 callgsubr
          76.98 90 callsubr
          55 hvcurveto
          -72 169 rlineto
          -40 -72.01 -82.99 -51 callgsubr
          -149 hhcurveto
          hintmask 0110110110000000
          -192 -88 -69 callgsubr
          165 -12 hvcurveto
          692 hlineto
          159 callgsubr
          174 rmoveto
          -442 hlineto
          150 18.99 76 109 142 hhcurveto
          147 58 -99.99 -130 hvcurveto
          hintmask 1001110110000000
          -1103.99 -363 rmoveto
          87 -49 callgsubr
          78 34 callsubr
          vhcurveto
          195 callgsubr
          196 callsubr
          hlineto
          -52 -56 -95 -47 -82.99 hhcurveto
          -123 194 callsubr
          -61 callsubr
          81 hvcurveto
          endchar
        </CharString>
        <CharString name="agrave">
          -74 callgsubr
          84 callgsubr
          -82 callsubr
          371.00002 -105 callsubr
          hintmask 10111011
          692.98 1233 46 callgsubr
          493 -981.01 -104 callsubr
        </CharString>
        <CharString name="alpha">
          67 -24 callsubr
          -99 callsubr
          722.98 200 hstem
          -17 callsubr
          -105 callsubr
          439.99998 -94 callsubr
          vstem
          1122 193.99 rmoveto
          -1.99 -6 -9.02 -3.02 -11 hhcurveto
          -42 -30.99 29 109 hvcurveto
          755.02 -214.02 vlineto
          -18.99 -131 rlineto
          121 callgsubr
          -65 -91 28 callsubr
          -126.01 hhcurveto
          -273 -150 -238 -336 85 callgsubr
          -308 151 -219.97 270 134 105 callgsubr
          -45 callsubr
          103 65 vhcurveto
          -114 38 76 -51 callgsubr
          105 hhcurveto
          90 callgsubr
          39 4 -31 callgsubr
          43 hvcurveto
          -577 170 rmoveto
          43 callsubr
          98.02 64 -52.99 -82 40.99 vhcurveto
          -457.01 vlineto
          -79 -40 -63 -52 -16 callgsubr
          hhcurveto
          endchar
        </CharString>
        <CharString name="alpha.alt">
          120 -24 callsubr
          -99 callsubr
          -179 43 858.98 200 hstemhm
          -17 callsubr
          -105 callsubr
          hintmask 00000000
          hintmask 01110000
          1118.99 hmoveto
          -115 540 -17 callgsubr
          542 rlineto
          -226 hlineto
          -27 -191.02 rlineto
          178 callgsubr
          -69 -110 -49 callgsubr
          -164 hhcurveto
          -279 -152 -238 -336 85 callgsubr
          hintmask 10110000
          -308 153.99 -219.97 275 169 111 79.97 133.02 69 vhcurveto
          hintmask 01110000
          30 -192 rlineto
          152 callsubr
          508.99 rmoveto
          hintmask 10110000
          -170 -23 -61 105 callsubr
          122 callgsubr
          hhcurveto
          43 callsubr
          153 10 callsubr
          -166 -177.99 18 vhcurveto
          endchar
        </CharString>
        <CharString name="ampersand">
          224 -20 200 -180 43 -43 -93 callsubr
          1021.98999 200 hstemhm
          107 callsubr
          -64 callgsubr
          -129.00002 233 300.99 215.01 43 216 hintmask 00000000
          hintmask 01011011
          1299.99 hmoveto
          hintmask 00111011
          -214 -93 callsubr
          rlineto
          89 120 1 callsubr
          152 171 vvcurveto
          -216 hlineto
          -101.01 -23 -89 -23 callgsubr
          -76 vhcurveto
          153 callgsubr
          327 rlineto
          hintmask 10010110
          99 72 rlineto
          117 -17 callsubr
          79.01 96.02 139 vvcurveto
          176 -141 150 -222 -233 -153 -140 -231 -112 59 -98 28 callgsubr
          -116 vhcurveto
          hintmask 10011010
          105 callsubr
          -113.01 -111 -101 101 callgsubr
          vvcurveto
          -241 182 101 callgsubr
          293.99 135 130 37 -49 callgsubr
          105.98 vhcurveto
          hintmask 01011011
          81.02 158 callsubr
          rlineto
          hintmask 10010110
          -422.01 1275.99 rmoveto
          95 32 callgsubr
          -68 -68 -78 -30.99 -46 -83 -55 hvcurveto
          -87 -58 rlineto
          -60 76 -40 10 callsubr
          65 vvcurveto
          8 callgsubr
          51 76 101 vhcurveto
          -22 -1095.99 rmoveto
          hintmask 10011010
          -151 -83 97 30 callgsubr
          47 12 76 104 81 hvcurveto
          29 21.01 314 -370.01 rlineto
          hintmask 10010110
          -50 -68 -25 callgsubr
          -28 -78.99 hhcurveto
          endchar
        </CharString>
        <CharString name="ampersand.smcp">
          200 -18 -82 callgsubr
          -182.99 43 -43 -57 callgsubr
          196 callsubr
          583.98 403.01001 194 hstemhm
          92 -77 callsubr
          -157 224 233.98999 225.99 198 callgsubr
          217 hintmask 0000000000000000
          hintmask 0100110110000000
          1211.99 hmoveto
          hintmask 0010110110000000
          -199.99 -57 callgsubr
          rlineto
          hintmask 0001110110000000
          80 98 48 124 155 vvcurveto
          -217 hlineto
          -86 -20.01 -25 callgsubr
          -71 callsubr
          -63 vhcurveto
          -228 236 rlineto
          hintmask 1000101100000000
          69 47 rlineto
          92 63 89 callgsubr
          88 105 vvcurveto
          162.98 -133.98 122.02 -210 -210 -130 -123 -153 -119.01 63 -74 92 -95 vhcurveto
          hintmask 1000110100000000
          173 callgsubr
          -33 rlineto
          -123 -83 -75 -89 callgsubr
          -135 vvcurveto
          -174 -52 callsubr
          -131.99 257 118 callgsubr
          121.02 139 callsubr
          59 98 vhcurveto
          hintmask 0100101110000000
          -8 callsubr
          199 callsubr
          rlineto
          -530.99 883 rmoveto
          52 39 52 75 vhcurveto
          hintmask 1000101100000000
          76 90 callsubr
          -45 -55 -42 -19.99 -23 callgsubr
          -60 callgsubr
          -45 hvcurveto
          -79 callsubr
          -33 rlineto
          hintmask 0100101110000000
          104 callsubr
          56 -41.99 45 53 vvcurveto
          hintmask 1000110100000000
          115 -700.01 rmoveto
          -119.01 -63 53 81 36 13 46 63 43 hvcurveto
          56 1 callsubr
          248 -256 rlineto
          -26.99 -55 -89 callsubr
          -14.01 -76 hhcurveto
          endchar
        </CharString>
        <CharString name="aring">
          -74 callgsubr
          115 94 223.01001 95 -82 callsubr
          -15.01 110 223.01001 110 -57 -105 callsubr
          hintmask 1011110010100000
          565.99 1216.98 rmoveto
          hintmask 1011110011000000
          127 95 89 115 114.02 -95 94 -127 -127 -94 -94 133 callgsubr
          hvcurveto
          hintmask 1011110010100000
          186 callsubr
          vhcurveto
          hintmask 1011110011000000
          171 callsubr
          vmoveto
          -72 callgsubr
          45 -52 -61 -59 -45 -51 -60 callgsubr
          -18 callgsubr
          -25 callsubr
          52 58 61 90 callgsubr
          191 callsubr
          hintmask 1011110100100000
          414 -1282 -103 callgsubr
          hintmask 1011111000100000
          -98 callgsubr
          hintmask 0111110010100000
          -83 callgsubr
          hintmask 1011110100100000
          -74 callsubr
          hintmask 1011111000100000
          -102 callsubr
        </CharString>
        <CharString name="asciicircum">
          -212 1415.01999 -85 callgsubr
          51.99 774 vstem
          826 728.99 rmoveto
          -298 727 rlineto
          -33 hlineto
          -144 hlineto
          -298.99 -727 rlineto
          209.99 hlineto
          177 461 178 -461 rlineto
          endchar
        </CharString>
        <CharString name="asciitilde">
          267 385.98 -92 callgsubr
          16.02 -57 callgsubr
          hstemhm
          116 19 callgsubr
          737.98999 190.99 hintmask 00000000
          hintmask 11110000
          1240.99 787.99 rmoveto
          -191 -1 rlineto
          -111 -60 -82 1 callgsubr
          -57.02 102 callsubr
          30 59 -62 vhcurveto
          hintmask 01110000
          87 -94 -83.99 47 -111 hhcurveto
          -193 -136.99 -157 -235.99 hvcurveto
          196 hlineto
          110 54 76 87.99 59 49 -32 -57 60 vhcurveto
          hintmask 11110000
          -91 99 2 callsubr
          -44 111 hhcurveto
          193 139 169 233 hvcurveto
          endchar
        </CharString>
        <CharString name="asterisk">
          -181 1416.01999 -85 callgsubr
          378.49 165.49 vstem
          332.98 971 rmoveto
          196 callsubr
          -272.02 147 -103 178 280 181 -289 147 158 callgsubr
          170 callgsubr
          266.02 312.02 87.98 -55 -6 callgsubr
          -298 -116 16.02 351.99 rlineto
          -181 hlineto
          14.99 -345 -303 118 -54.99 -171 rlineto
          endchar
        </CharString>
        <CharString name="at">
          743 -452.99 9 callgsubr
          164 callgsubr
          144.98 -142.98999 -5 callgsubr
          684.98999 201 callgsubr
          282.02 152 hstemhm
          98 176.99 256.98999 199 849.01001 88 callgsubr
          hintmask 11011111
          965 1423.99 rmoveto
          -513 -330 -408 -546 -24 hvcurveto
          -583.99 -23 297 -339 518.99 hhcurveto
          91 callsubr
          9 callgsubr
          29 60 94 hvcurveto
          -39 138 rlineto
          -43 -83 29 callsubr
          -29 -117 hhcurveto
          -414 -228 164 callgsubr
          490.99 22 hvcurveto
          467.99 21.02 251.99 334.01 413 hhcurveto
          445.01 196 -290 -465 -22 hvcurveto
          156 callsubr
          -8.01 -86 -173 8 callsubr
          hhcurveto
          -61 -89 callsubr
          33 88 callgsubr
          14.99 hvcurveto
          52 565 rlineto
          58 -79 -71 -36 callgsubr
          -151 hhcurveto
          -220 -196 133 callsubr
          -347 -34 hvcurveto
          hintmask 10111111
          -267 -25 108.01 -176 196 hhcurveto
          99 94 50.99 100 89 callgsubr
          hvcurveto
          hintmask 11011111
          86 callgsubr
          -31 callsubr
          107 callsubr
          -55.97 170 callsubr
          hhcurveto
          299.99 116 280.98 261 10 hvcurveto
          546 23 -282.99 357 -514.99 hhcurveto
          hintmask 10111111
          -93 -1276 rmoveto
          -106 -52 121 callgsubr
          180 17 hvcurveto
          267 25 17 callgsubr
          92 callgsubr
          148 hhcurveto
          35.99 31 -6.99 -11.02 28 hvcurveto
          75 callgsubr
          -489.99 rlineto
          -132.02 -48 -75 -45 194 callsubr
          hhcurveto
          endchar
        </CharString>
        <CharString name="atilde">
          -74 callgsubr
          155 167 -78 166.99 -82 callsubr
          -162.99998 -87 callgsubr
          383.01 -105 callsubr
          -199.00002 152 hintmask 0000000000000000
          hintmask 1011010011000000
          437.99 1345.99 rmoveto
          hintmask 1011100000100000
          107 33 -89 131 hhcurveto
          127 97 25 callgsubr
          -152 12 rlineto
          -19 callgsubr
          -40 -41 -51 vhcurveto
          hintmask 1011010011000000
          -90 callgsubr
          50 vhcurveto
          hintmask 1011100101000000
          542 -1094 -103 callgsubr
          hintmask 1011101001000000
          -98 callgsubr
          hintmask 0111100001000000
          -83 callgsubr
          hintmask 1011100101000000
          -74 callsubr
          hintmask 1011101001000000
          -102 callsubr
        </CharString>
        <CharString name="b">
          63 -20 -69 callsubr
          -182.99 161 callsubr
          716 -69 callsubr
          hstemhm
          47 callsubr
          454.99 -94 callsubr
          hintmask 10111000
          652.98 26 callsubr
          -122 -92 75 callgsubr
          -79.02 -89 callsubr
          hvcurveto
          557.02 11 callsubr
          vlineto
          hintmask 01111000
          -1536 225.02 vlineto
          hintmask 10111000
          12 116.98 rlineto
          -87 68 17 callgsubr
          -51 callgsubr
          131 hhcurveto
          275 146 135 callsubr
          320 hvcurveto
          -73 callgsubr
          324 -144.02 227 -279 vhcurveto
          174 -572 rmoveto
          -194.99 -58 -152 16 callsubr
          -113 -69 56 82 -23 callgsubr
          vhcurveto
          442 vlineto
          82 1 callsubr
          69 54 111 hhcurveto
          183 32 callgsubr
          -160.02 -187.99 hvcurveto
          endchar
        </CharString>
        <CharString name="b.ss06">
          72 -20 -69 callsubr
          -182.99 43 855.99 -69 callsubr
          hstemhm
          47 callsubr
          475.00002 -105 callsubr
          hintmask 10111000
          652.98 26 callsubr
          -122 -92 75 callgsubr
          -25 callgsubr
          -89 callsubr
          hvcurveto
          556.02 11 callsubr
          vlineto
          hintmask 01111000
          -1536 215 vlineto
          hintmask 10111000
          18 122 rlineto
          109 callgsubr
          69 97.01 -51.99 133 hhcurveto
          275 157 callsubr
          112 callsubr
          -164 222 -279 vhcurveto
          194 -572 rmoveto
          -191 -25 callgsubr
          -156 16 callsubr
          -110 -70 54 -95 callgsubr
          -40 vhcurveto
          454 vlineto
          161 callgsubr
          40 70 50 -17 callgsubr
          hhcurveto
          177 80 -151 -197 hvcurveto
          endchar
        </CharString>
        <CharString name="backslash">
          -233 1415.01999 -85 callgsubr
          17.98 854.99 vstem
          17.98 4 callsubr
          607 -1580.99 rlineto
          248 hlineto
          -607.99 1580.99 rlineto
          endchar
        </CharString>
        <CharString name="bar">
          -575 1415.01999 -85 callgsubr
          173.99 169 vstem
          343 -270 rmoveto
          1725.99 -169 -1725.99 vlineto
          endchar
        </CharString>
        <CharString name="braceleft">
          -404 527.99 -22 callgsubr
          hstem
          246.99 231.99 vstem
          478.99 105.98 rmoveto
          203 vlineto
          178 callgsubr
          -52 115 204 callgsubr
          63 vhcurveto
          104 callgsubr
          63 52 106 callgsubr
          132 vvcurveto
          203 vlineto
          151 41 30 callgsubr
          136 46 vhcurveto
          -49 142 rlineto
          -275 -77 -85 -177.99 -210 vvcurveto
          -203 vlineto
          -134 -57 -85.01 -135 vhcurveto
          -38 vlineto
          -144 vlineto
          135 57 -86 -133.02 hvcurveto
          -203 vlineto
          -209.98 85 -179 275 -77 vhcurveto
          49 10 callgsubr
          rlineto
          -136 46 -41 126.02 150.97 vvcurveto
          endchar
        </CharString>
        <CharString name="braceright">
          -404 527.99 -22 callgsubr
          hstem
          204.98 233 vstem
          437.99 928.99 rmoveto
          203 vlineto
          210 -85 19 callsubr
          -275 77 vhcurveto
          -79 callsubr
          -142 rlineto
          20 callgsubr
          -46 40 136 callgsubr
          -151 vvcurveto
          -203 vlineto
          -136 198 callgsubr
          -114 127 -60 vhcurveto
          -127 -60 104 callsubr
          -114 -136 vvcurveto
          -203 vlineto
          -150.97 -40 -126.02 -135.99 -46 vhcurveto
          48.99 -142.99 rlineto
          275 77 85 179 209.98 vvcurveto
          203 vlineto
          133.02 56 86 134.99 vhcurveto
          44 vlineto
          138 vlineto
          -134.99 -56 156 callgsubr
          134 hvcurveto
          endchar
        </CharString>
        <CharString name="bracketleft">
          -527 -327 194 1618.98 195 14 callgsubr
          541.98 1485.99 rmoveto
          195 -410.99 -2008 410.99 194 -162 1618.98 vlineto
          endchar
        </CharString>
        <CharString name="bracketright">
          -527 -327 194 1618.98 195 hstem
          175.98 -98 callsubr
          86 callsubr
          1681 rmoveto
          -195 163 -1618.98 -163 -194 412 2008 vlineto
          endchar
        </CharString>
        <CharString name="brokenbar">
          -580 1415.01999 -85 callgsubr
          20 callgsubr
          233 vstem
          368.99 698 rmoveto
          757.99 -233 -757.99 vlineto
          -968 vmoveto
          233 794.99 -233 hlineto
          endchar
        </CharString>
        <CharString name="bullet">
          -371 515.99 472 hstem
          20 callgsubr
          449 vstem
          20 callgsubr
          770.99 rmoveto
          -40 vlineto
          -126 87 -89 138 139.02 85 89 126 vhcurveto
          40 vlineto
          30 callgsubr
          -85 107 callgsubr
          -141 -136 -87 137 callgsubr
          136 callgsubr
          vhcurveto
          endchar
        </CharString>
        <CharString name="c">
          -18 94 callgsubr
          vstem
          779 360 rmoveto
          192 callsubr
          -56 callgsubr
          -297.98 160 -246 333.99 241 194.99 169 211 6 vhcurveto
          endchar
        </CharString>
        <CharString name="c.ss06">
          -4 188 callsubr
          -49 callgsubr
          -98 callsubr
          792.99 360 rmoveto
          -105 -36 callsubr
          -91.01 -75 -116 hhcurveto
          -196 -54 169.99 174 hvcurveto
          34.02 vlineto
          74 callgsubr
          198 callgsubr
          173 192.98 130 78 -37 callgsubr
          -114.01 -6 callsubr
          vhcurveto
          234 hlineto
          242 -9 -176 167 -262 hhcurveto
          -332 -169 -246 -297.98 hvcurveto
          -34.02 vlineto
          -297.98 168 -246 334.01 240.99 196 169 211 9 vhcurveto
          endchar
        </CharString>
        <CharString name="ccedilla">
          -18 -456 142 172 322 117 callsubr
          43 -36 43 867.97 200 25 callsubr
          249.01999 -69 callsubr
          hintmask 00000000
          hintmask 11001110
          569 180 rmoveto
          -56 callgsubr
          hintmask 10011110
          -262 123 -221 255 -49.97 vhcurveto
          hintmask 11001110
          -30 -133.02 -29 callsubr
          151 callgsubr
          13 vhcurveto
          8 41 rlineto
          hintmask 11001110
          210 27.97 -52 callsubr
          156.02 6 192 rrcurveto
          -234.99 hlineto
          192 callsubr
          endchar
        </CharString>
        <CharString name="cedilla">
          -559 -450 142 257.01 28 callsubr
          hstem
          106 callsubr
          -69 callsubr
          vstem
          321.98 3.99 rmoveto
          -182 hlineto
          124 callgsubr
          -140 rlineto
          105 -36 callsubr
          45 180 callgsubr
          217 197 callsubr
          107 callgsubr
          134.98 106 callgsubr
          -76 193 callgsubr
          -74 13 hvcurveto
          endchar
        </CharString>
        <CharString name="cent">
          63 -245 425 -191 43 869.98 416.01 hstemhm
          162 callgsubr
          -105 callsubr
          138.99998 200 hintmask 00000000
          hintmask 10111000
          200 callsubr
          180 rmoveto
          -196 -46 169.99 174 hvcurveto
          34.02 vlineto
          74 callgsubr
          47 173 194 130 75 -37 callgsubr
          -114.01 6 vhcurveto
          233.99 hlineto
          -5 211 -134 9 callgsubr
          -208 35 rrcurveto
          224 -200 -225 vlineto
          -261 -47 -127 -223 -264.99 vvcurveto
          -34.02 vlineto
          hintmask 01111000
          -264.99 30 callgsubr
          -223 262 -46.98 vhcurveto
          hintmask 10111000
          -234 200 vlineto
          hintmask 01111000
          234 vlineto
          hintmask 10111000
          196 36.98 146 151 5 183 rrcurveto
          -233.99 hlineto
          192 callsubr
          endchar
        </CharString>
        <CharString name="circumflex">
          -89 1247.98 100 callsubr
          145.98 696.01 vstem
          841.99 1258.99 rmoveto
          -277.01 62 callgsubr
          196.02 vlineto
          150 205 callsubr
          endchar
        </CharString>
        <CharString name="colon">
          -542 -12 273.98 571 274 hstem
          128.98 289.01 vstem
          273 1106.98 rmoveto
          -91.01 -53 -8 callgsubr
          -78 -77 53 -59 22 callgsubr
          91 54 59 77 78 -54 -61 callsubr
          -91 hvcurveto
          -845 vmoveto
          -91.01 71 callsubr
          22 callgsubr
          91 -11 callgsubr
          -91 hvcurveto
          endchar
        </CharString>
        <CharString name="comma">
          -633 -333 569.99 hstem
          18 callsubr
          220.99 vstem
          352.99 -45 callsubr
          rmoveto
          1 176 rlineto
          -222 -185 hlineto
          -129 -47 1 callgsubr
          -55 109 callgsubr
          vhcurveto
          133 -77 rlineto
          116.02 121 callgsubr
          74 -52 callsubr
          118 callgsubr
          vvcurveto
          endchar
        </CharString>
        <CharString name="copyright">
          515 -24 callsubr
          -69 callgsubr
          177.98 135 623.01001 135 175.98999 125 hstem
          87 122 224.99 9 callgsubr
          372.99998 155.99 266.02 -88 callsubr
          320.98 491.99 rmoveto
          -156 hlineto
          -130 -60.99 -79 callsubr
          -118 -128 132 callsubr
          103 149 vhcurveto
          120 vlineto
          147 10 callsubr
          104 128 118 62 -50 -128 vhcurveto
          156 hlineto
          209 120 callsubr
          104.02 -206 -215 -134 -158 -229 vhcurveto
          117 callgsubr
          vlineto
          -230 134 -157 215 206 128.99 104 210 vhcurveto
          endchar
        </CharString>
        <CharString name="crossbar">
          -133 646.98 173.01 hstem
          143.99 672.99 vstem
          816.99 646.98 rmoveto
          -6 callgsubr
          -673 9 callsubr
          vlineto
          endchar
        </CharString>
        <CharString name="currency">
          345 -20 155 callsubr
          881.98999 155 callsubr
          hstem
          127 193 callsubr
          818.98999 155 callsubr
          vstem
          1316.99 607.99 rmoveto
          137 -40 124 -89 callsubr
          101 vhcurveto
          41 callsubr
          150 8 callsubr
          145 -145.02 121 callsubr
          rlineto
          74 -98 204 callgsubr
          140 callgsubr
          -131 hhcurveto
          120 callsubr
          -119 -41.99 -73.01 -98 hvcurveto
          -142 145 -140.99 -144 144 -147 rlineto
          -69 -16 callgsubr
          -40 87 callgsubr
          -138 vvcurveto
          -131.99 157 callgsubr
          -121.02 63 -98.98 vhcurveto
          -134.98 -138.02 140.99 -143.99 129 18 callsubr
          rlineto
          -80 100 91 callsubr
          -45.99 134.99 hhcurveto
          136 126 47 81 100 hvcurveto
          178 callgsubr
          -134.98 92 callgsubr
          144.98 -139 141 rlineto
          61.99 99 36 104 callgsubr
          130 vvcurveto
          -595 -442 rmoveto
          -227 -182.99 19 callgsubr
          246 246 161 callsubr
          193.99 227 227 182 -193.99 -246 -246 -182 117 callsubr
          -227 hvcurveto
          endchar
        </CharString>
        <CharString name="d">
          67 -20 204 -184 102 callgsubr
          715 -69 callsubr
          25 callsubr
          452.99998 -94 callsubr
          hintmask 10111000
          779.98 1536 rmoveto
          -553 vlineto
          75.98 -89 callsubr
          -91 43 -117 hhcurveto
          -265.02 -162 49 callgsubr
          164 -234 261 91 callsubr
          105 callgsubr
          48 -17 callsubr
          69 vhcurveto
          hintmask 01111000
          12 -112.99 rlineto
          225.02 1536 hlineto
          hintmask 10111000
          -463.01 -1352.01 rmoveto
          -172 -60 callgsubr
          144 callgsubr
          69 157 172 104 68 -49 -89 callgsubr
          40 vhcurveto
          -458 vlineto
          -79.01 -40 -89 callsubr
          -51 -107 hhcurveto
          endchar
        </CharString>
        <CharString name="d.ss06">
          87 128 callsubr
          855.99 -69 callsubr
          25 callsubr
          472.99998 -105 callsubr
          hintmask 10111000
          799.99 1536 rmoveto
          -552.02 vlineto
          75 -89 callsubr
          -91.01 43 -117 hhcurveto
          -264.99 -182 49 callgsubr
          184 -234 261.02 128 17 callgsubr
          50.99 87 69 vhcurveto
          hintmask 01111000
          18 163 callgsubr
          rlineto
          215 1536 hlineto
          hintmask 10111000
          -463 -1352.01 rmoveto
          -172 -87 9 callgsubr
          175 callsubr
          hvcurveto
          21 vlineto
          198 89 151 172 101 69 -47 -74 42 vhcurveto
          -469.01 vlineto
          -76 -41 169 callsubr
          -79 callsubr
          -105 hhcurveto
          endchar
        </CharString>
        <CharString name="degree">
          -309 940.99 92 callgsubr
          251.99998 142 hstem
          127 140 246.98 140 vstem
          392.99 1477 rmoveto
          -145 -121 -123 -147 -148 121 163 callgsubr
          145 10 callgsubr
          118 153 callsubr
          148 147 -118 123 -142.99 hvcurveto
          -394.02 vmoveto
          -68 -58 53 71 73.02 58 28 callsubr
          68 89 callgsubr
          53 -54.99 -73.02 -71 -53 -53 169 callsubr
          hvcurveto
          endchar
        </CharString>
        <CharString name="dieresis">
          -181 1247.98 -32 callgsubr
          hstem
          93.98 67 callsubr
          vstem
          221.98 1485.99 83 callsubr
          132 callsubr
          44 callsubr
          10 callsubr
          -53 callsubr
          hvcurveto
          461 -1 rmoveto
          -78.99 -49 -53 -66.99 -67.01 44 callsubr
          -72 callgsubr
          -53 callsubr
          hvcurveto
          endchar
        </CharString>
        <CharString name="divide">
          79 144.99 174 callsubr
          203 callsubr
          177 callsubr
          164.01999 174 callsubr
          hstem
          432.98 -32 callsubr
          vstem
          576.98 1229.99 rmoveto
          89 callsubr
          -53 -58 -78 -75.99 53 -58 28 callgsubr
          107 callgsubr
          32 callgsubr
          58 75.99 78 85 callsubr
          58 137 callgsubr
          hvcurveto
          504.02 -648.99 rmoveto
          215 -1014 -215 vlineto
          509.99 -166 rmoveto
          89 callsubr
          -53 -58 -89 callgsubr
          -77 53 -57 28 callgsubr
          107 callgsubr
          32 callgsubr
          57 77 -95 callgsubr
          85 callsubr
          58 137 callgsubr
          hvcurveto
          endchar
        </CharString>
        <CharString name="dollar">
          76 -212 396 -201 43 1245.99 419 -260.96 -96 callgsubr
          -38.97002 69 callgsubr
          42 callsubr
          -94 callsubr
          -192.99998 -77 callsubr
          108.99998 159 -138.98999 88 callgsubr
          116.99998 -105 callsubr
          -242.99 248 hintmask 0100101010100000
          1064 383 rmoveto
          249 -160 109 -258.99 94 vhcurveto
          hintmask 0110001011000000
          -183 -88 callgsubr
          -58 61 111 vvcurveto
          117 62 81 138.02 129 2 callsubr
          -100 -167 vhcurveto
          249 hlineto
          hintmask 0101001011000000
          269 -139 -66 callsubr
          -227 32 vhcurveto
          hintmask 0110001010100000
          220 105 callsubr
          vlineto
          hintmask 1000101010100000
          -218 vlineto
          -229 21 callsubr
          121 callsubr
          -149 -225 vvcurveto
          -250 -66 callsubr
          -112 258.01 1 callgsubr
          vhcurveto
          174 callgsubr
          -61 64 -68 -112 vvcurveto
          -119 -80 -89 callgsubr
          -148 vhcurveto
          hintmask 1000110010100000
          -116 -122.99 58 203 hvcurveto
          11 callsubr
          hlineto
          hintmask 0100110100100000
          -313 200 -126.01 212.99 -22.98 vhcurveto
          hintmask 1000101100100000
          -195 159 vlineto
          hintmask 0100101100100000
          195 vlineto
          hintmask 0100101010100000
          239 -31 callgsubr
          153 140 234 vvcurveto
          endchar
        </CharString>
        <CharString name="dollar.smcp">
          -10 -236.99 408.98 -183.98999 102 callgsubr
          819.98999 403 hstemhm
          61.99 -64 callgsubr
          -209.99 241 136.98999 160 121.01001 -105 callsubr
          -242.99 135 callgsubr
          hintmask 01101101
          589.99 688.99 rmoveto
          110 callgsubr
          vhcurveto
          hintmask 01101110
          145 101 callsubr
          -76 -95 hvcurveto
          249 hlineto
          187 -142 137.02 -227.98 30 vhcurveto
          220 -160.02 -217 vlineto
          -226 -24 callsubr
          -152 -130 -180 vvcurveto
          -203 150 -94 164 callgsubr
          17 callsubr
          vhcurveto
          hintmask 01110101
          59 callsubr
          -155 -98 28 callsubr
          135 vhcurveto
          -250 hlineto
          -233.98 -82 callgsubr
          -118.01 217 -21.99 vhcurveto
          hintmask 10101101
          -224.99 160.02 vlineto
          hintmask 01101101
          224.99 vlineto
          226 23 10 callgsubr
          117 185 vvcurveto
          143 callsubr
          endchar
        </CharString>
        <CharString name="dotlessi">
          -548 0 43 hstem
          10 callgsubr
          -98 callsubr
          391.99 hmoveto
          55 callgsubr
        </CharString>
        <CharString name="e">
          -73 callsubr
          40 callsubr
          1037.99 567.99 -106 callsubr
        </CharString>
        <CharString name="e.ss07">
          -73 callsubr
          hstem
          81.98 255.01 454.99 246 vstem
          1037.99 200 callsubr
          rmoveto
          300 -150 210 -314 -280 -212 -214 -332 vhcurveto
          -41 vlineto
          -307 211 -228 337 177 121 56.99 50 -88 callgsubr
          vhcurveto
          -58 74 callgsubr
          rlineto
          -42 -18 callgsubr
          -104 -35.99 -110 hhcurveto
          -197.02 -7 callgsubr
          0 callsubr
          164 -19 hvcurveto
          704 hlineto
          -246 180 rmoveto
          -454.99 130 callsubr
          21 82 98 134 hhcurveto
          88 callgsubr
          58 -7 callgsubr
          -127 hvcurveto
          endchar
        </CharString>
        <CharString name="eacute">
          -73 callsubr
          84 callgsubr
          40 callsubr
          908.98 1536 rmoveto
          -281.98 hlineto
          -195.02 78 callsubr
          406 -665 -106 callsubr
        </CharString>
        <CharString name="ecircumflex">
          -73 callsubr
          146 288.99 40 callsubr
          553.98 1402.98 46 callsubr
          -276.99 -47 callgsubr
          634 -680 -106 callsubr
        </CharString>
        <CharString name="edieresis">
          -73 callsubr
          146 15 callgsubr
          81.98 256 -140.98999 147 callsubr
          -122 246 hintmask 00000000
          hintmask 11110110
          325 196 callgsubr
          182 callgsubr
          10 callsubr
          -88 callgsubr
          189 callgsubr
          -94 callgsubr
          132 callsubr
          -59 callgsubr
          460.99 -2 rmoveto
          53 callsubr
          -78.99 164 callsubr
          78.99 hvcurveto
          hintmask 11111001
          252 -677.99 -106 callsubr
        </CharString>
        <CharString name="egrave">
          -73 callsubr
          84 callgsubr
          40 callsubr
          681.98 1233 144 callsubr
          271.02 35 callsubr
          561.99 -665 -106 callsubr
        </CharString>
        <CharString name="eight">
          -99 callgsubr
        </CharString>
        <CharString name="eight.frac">
          652.98 -87 callgsubr
          187.01 152 170.01001 -84 callsubr
          1070 rmoveto
          hintmask 11101100
          71 35 140 callgsubr
          -61 callsubr
          13 callsubr
          -76 43 -59 182 callsubr
          -35.99 -52 -65 -88 vvcurveto
          -153 82 callgsubr
          51 callsubr
          31 60 hvcurveto
          hintmask 11110010
          11 callgsubr
          -509.01 58 callgsubr
        </CharString>
        <CharString name="eight.smcp">
          -35 -93 callgsubr
          311.98 200 285.01001 200 -28 callsubr
          -220.98999 -64 callgsubr
          322.98999 -105 callsubr
          -219.99 -77 callsubr
          hintmask 11110010
          765.99 599.98 rmoveto
          hintmask 11101100
          158 callgsubr
          52 65 163 callsubr
          112 vvcurveto
          212.99 -173 114.01 -240 -237 101 callgsubr
          -114.01 -212.99 -112 200 callgsubr
          -89.01 106 -52 vhcurveto
          hintmask 11110010
          -122 -53 -77 -98 120 callsubr
          vvcurveto
          -222 175 callsubr
          -113.99 249 250 -90 callsubr
          113.99 222 128.98 87 callsubr
          98 -123 53 vhcurveto
          hintmask 11101100
          -241 381.01 rmoveto
          102.02 61.99 -55 152 callsubr
          -87 -60 -58 -16 callgsubr
          -101.01 -8 callgsubr
          58 87 87 -61 callsubr
          53 99 hvcurveto
          hintmask 11110010
          2 -797 rmoveto
          -116 -74 59 34 callgsubr
          98 74 58 113.99 106 callgsubr
          -95 callgsubr
          -58 -98 -96.99 -76 -59 -115 hvcurveto
          endchar
        </CharString>
        <CharString name="eight.sup">
          47 callgsubr
          186.99 152 170.01001 -84 callsubr
          406 rmoveto
          hintmask 11101100
          71 36 140 callgsubr
          103 callsubr
          13 callsubr
          -75 43 -8 callgsubr
          187 callsubr
          -153 18 callgsubr
          -75.98 174 174 129 75.98 51 callsubr
          31.01 60 hvcurveto
          hintmask 11110010
          11 callgsubr
          -509.01 rmoveto
          -70 -46 36 59 59 46 139 callsubr
          68.01 69 35 callgsubr
          -32.99 -59 -59 -46 -36 -69 hvcurveto
          endchar
        </CharString>
        <CharString name="eight.tnum">
          -99 callgsubr
        </CharString>
        <CharString name="ellipsis">
          365 -12 273.98 hstem
          137.99 -32 callsubr
          171.01 -32 callsubr
          154.99998 289.01 vstem
          282.99 261.98 rmoveto
          89 callsubr
          -54 -8 callgsubr
          -78 -76 54 -59.98 28 callgsubr
          8 callgsubr
          -11 callgsubr
          0 callgsubr
          hvcurveto
          459 hmoveto
          -91 71 callsubr
          91 28 callgsubr
          -11 callgsubr
          89 callsubr
          hvcurveto
          444 hmoveto
          137 callgsubr
          71 callsubr
          107 callgsubr
          28 callgsubr
          -11 callgsubr
          89 callsubr
          hvcurveto
          endchar
        </CharString>
        <CharString name="emdash">
          491 159 callsubr
          202 hstem
          30 callgsubr
          1360.99 vstem
          1486.99 159 callsubr
          rmoveto
          202.02 -1361 170 callgsubr
          vlineto
          endchar
        </CharString>
        <CharString name="endash">
          228 159 callsubr
          202 hstem
          201 callgsubr
          1020.98 vstem
          1177.99 159 callsubr
          rmoveto
          202.02 -1020.99 170 callgsubr
          vlineto
          endchar
        </CharString>
        <CharString name="equal">
          60 350.98 206 219 206 hstem
          143.99 867 vstem
          1011 775.99 rmoveto
          206 -867 -206 vlineto
          867 -425 rmoveto
          206 -867 -206 vlineto
          endchar
        </CharString>
        <CharString name="eth">
          100 -20 200 599.98 192 hstem
          162 callgsubr
          -105 callsubr
          492.01 -98 callsubr
          837 1303.98 rmoveto
          151 101 -77 109 -179 163 callgsubr
          -117 -37 callsubr
          -141 63 -157 32 rlinecurve
          -78 -199 101 21 callsubr
          98 -24 callgsubr
          87 194 callsubr
          rlinecurve
          -170 -113.01 78.01 -109 203 134 77 -76 -45 callsubr
          -95 35 -116.99 rlinecurve
          28 callsubr
          -69 -88 33 -99.99 hhcurveto
          -272.02 -179 88 callsubr
          -303 -272 200 -216 292 286.98 211 235 343 hvcurveto
          85 vlineto
          270.99 -95.01 226.02 -158.99 163.99 vhcurveto
          5 -762 rmoveto
          -205.99 -89 -156 -156 -158 -89 139 34 callsubr
          193 92.02 0 callsubr
          168 153 callsubr
          76 102 callsubr
          -54 37 vhcurveto
          1 -11 0 -11 -12 vvcurveto
          endchar
        </CharString>
        <CharString name="exclam">
          -540 -14 266.99 1162.02998 69 callgsubr
          140.98 282 -262.5 -32 callgsubr
          hintmask 11010000
          385.99 431.98 rmoveto
          25 1024 rlineto
          -263 hlineto
          25 -1024 rlineto
          hintmask 11100000
          109 -179 rmoveto
          -89 -52 -59 -75 -75 52 -58 89 88 53 58 75 75 -53 59 -88 hvcurveto
          endchar
        </CharString>
        <CharString name="exclamdown">
          -542 833.98 266.99 hstemhm
          151 callsubr
          281.98 -257.48 239 hintmask 00000000
          hintmask 11000000
          274.98 833.99 rmoveto
          88 52 59 75 75 -52 58 -88 1 callgsubr
          -53 -58 -75 -75 53 -59 -37 callsubr
          hvcurveto
          hintmask 10100000
          -105 -175 rmoveto
          160 callsubr
          -1023.97 rlineto
          263.99 hlineto
          160 callsubr
          1023.97 rlineto
          endchar
        </CharString>
        <CharString name="f">
          -363 -14 callgsubr
          vstem
          628.98 1352.99 rmoveto
          -39 callsubr
          hvcurveto
          -91 callsubr
          218.99 184 133 callsubr
          96 callgsubr
          vhcurveto
          endchar
        </CharString>
        <CharString name="f_f">
          365 -14 callgsubr
          478.01 -98 callsubr
          -92 callgsubr
          1183.99 rmoveto
          -16 callgsubr
          -165 -184 165 -897.99 249 897.99 218.99 184 133 callsubr
          96 callgsubr
          -39 callsubr
          vhcurveto
          6 194.99 rlineto
          11 75 callgsubr
          -47 7 -47 hhcurveto
          -235.99 -146 -132 -241 hvcurveto
          1147.99 169 rmoveto
          -39 callsubr
          hvcurveto
          -91 callsubr
          219 184 -219 96 callgsubr
          vhcurveto
          endchar
        </CharString>
        <CharString name="f_f_i">
          748 0 26 callgsubr
          257 218 -203.98999 204 hstemhm
          48 callgsubr
          369.99998 -94 callsubr
          370.00002 -105 callsubr
          hintmask 11101110
          1076 1147.99 rmoveto
          127 200 callgsubr
          64 145 106 82 160 callsubr
          -22.02 66 vhcurveto
          1 callsubr
          205 rlineto
          34 -105.98 86 callgsubr
          176 callgsubr
          -106 hhcurveto
          -275.99 -166 -144 -265.01 hvcurveto
          -18 callgsubr
          -151 vlineto
          133 callsubr
          hlineto
          hintmask 11011110
          96 callgsubr
          -39 callsubr
          vhcurveto
          -91 callsubr
          205 vlineto
          -66 callsubr
          -897.99 -22 callsubr
          897.99 213 184 -213 hlineto
          370 206 callsubr
        </CharString>
        <CharString name="f_f_l">
          748 -14 callgsubr
          369.99998 -94 callsubr
          370.00002 -98 callsubr
          1242.99 1556.99 rmoveto
          -264.01 181 callsubr
          -151 vlineto
          133 callsubr
          101.99 hlineto
          109 63 60 109 -39 callsubr
          vhcurveto
          -91 callsubr
          205 vlineto
          -66 callsubr
          -897.99 -22 callsubr
          897.99 219 184 -219 93.99 hlineto
          114.01 68 63 128 -36 callgsubr
          59 -5 -8 65 vhcurveto
          -1339.99 249 1512 vlineto
          32 callsubr
          -144 -205 24 -103 hhcurveto
          endchar
        </CharString>
        <CharString name="f_l">
          128 -14 callgsubr
          369.99998 -94 callsubr
          vstem
          623.98 1556.99 rmoveto
          -263.98 181 callsubr
          -165 -184 165 -897.99 249 897.99 218.99 184 133 callsubr
          93.99 vlineto
          114.01 89 callgsubr
          63 128 116 callgsubr
          58 -5 -8 30 callsubr
          vhcurveto
          -1339.99 -22 callsubr
          1512 vlineto
          32 callsubr
          -144.02 -204.99 24 -103.02 hhcurveto
          endchar
        </CharString>
        <CharString name="fi">
          109 0 26 callgsubr
          257 218 hstem
          -90 callsubr
          -105 callsubr
          370.01 -98 callsubr
          437.99 1147.99 rmoveto
          127 64 64 146 105 83 160 callsubr
          -22.02 65 vhcurveto
          39 205 rlineto
          34 -107.01 158 callsubr
          176 callgsubr
          -106 hhcurveto
          108 callgsubr
          -165 -144 -265.01 hvcurveto
          -18 callgsubr
          -165 -184 165 -897.99 249 897.99 213 184 -213 vlineto
          370.01 206 callsubr
        </CharString>
        <CharString name="five">
          76 -20 200 576.98 199 287.01001 212.99 hstem
          834.99 -77 callsubr
          vstem
          169.98 721.98 rmoveto
          199 -50 rlineto
          48 51 46 157 callgsubr
          2 callgsubr
          hhcurveto
          169 87 163 callgsubr
          -165 101 callgsubr
          -77 -122 -156 29 callsubr
          -86.02 2 callsubr
          138.02 -17 hvcurveto
          -241.99 hlineto
          -270.01 16 216 -144.99 245 hhcurveto
          324 156 177 callgsubr
          268 304 -163 186 -275.99 -100 -81 -30.99 -26 -46 hvcurveto
          39 344 rlineto
          580 212.99 -785.99 hlineto
          endchar
        </CharString>
        <CharString name="five.frac">
          652.98 -87 callgsubr
          246.01 151 callsubr
          119.02 12 callsubr
          1047.98 rmoveto
          151 -71 callsubr
          rlineto
          52 callsubr
          -49 -73 169 callsubr
          -29 104 callsubr
          45 callgsubr
          178 callgsubr
          92 callgsubr
          162 185 callgsubr
          -19 -36 callsubr
          -4 callgsubr
        </CharString>
        <CharString name="five.smcp">
          -35 -93 callgsubr
          399.98 182 196 68 callsubr
          729.98 -98 callsubr
          18 callsubr
          570.98 rmoveto
          199 -79 callsubr
          rlineto
          29 40 42 33 104 hhcurveto
          138 75 -81 -117 -114 -55 -88 -133.98 -111 151 callgsubr
          40 97 -11 hvcurveto
          -245 hlineto
          -215 12 204 -121.97 225 hhcurveto
          297.98 140 175 callgsubr
          211 240.99 -146.98 143 -252 -88 -76 -27.02 -16 -37 hvcurveto
          33.02 239 rlineto
          505 203 -711 hlineto
          endchar
        </CharString>
        <CharString name="five.sup">
          47 callgsubr
          245.99 151 callsubr
          119.02 12 callsubr
          384 rmoveto
          151 -37 rlineto
          52 callsubr
          -79 callsubr
          -73.01 -68 -29 -56 -86 138 callgsubr
          -45 23 58.02 -4 hvcurveto
          -188 hlineto
          -145.02 4 146 -86.98 155.02 hhcurveto
          -57 callgsubr
          97 18 callsubr
          92 callgsubr
          162 185 callgsubr
          -18.99 -8 -4 callgsubr
        </CharString>
        <CharString name="five.tnum">
          41 endchar
        </CharString>
        <CharString name="four">
          76 0 43 279.99 200 892.02998 -85 callgsubr
          684.99 -98 callsubr
          1113.99 523 rmoveto
          -180 932.99 -57 hlineto
          -199 hlineto
          -625.01 -980.99 7 -152 rlineto
          625 -322.99 249 322.99 180 hlineto
          -802 200 rmoveto
          355 564 18 31 callgsubr
          rlineto
          -595.99 vlineto
          endchar
        </CharString>
        <CharString name="four.frac">
          826.98 153 188 callgsubr
          979.99 rmoveto
          -95.01 473 -42 hlineto
          121 callsubr
          hlineto
          -365.02 -503 10.02 -123 24 callgsubr
          153 205 callgsubr
          32 callsubr
          rlineto
          -237 vlineto
          endchar
        </CharString>
        <CharString name="four.smcp">
          -35 0 43 204.99 200 hstem
          603.99 -98 callsubr
          1006 448 rmoveto
          -153 716.98 -58 hlineto
          -195 hlineto
          -551 -758.99 10 -158 rlineto
          545.02 -247.99 249 -77 callsubr
          153 hlineto
          -709.02 200 rmoveto
          288.01 367.98 19 32 rlineto
          -399.99 vlineto
          endchar
        </CharString>
        <CharString name="four.sup">
          0 315.98 -153 153 hstemhm
          148 callsubr
          hintmask 10100000
          703 315.98 rmoveto
          -95.01 473 -42 hlineto
          121 callsubr
          hlineto
          hintmask 01100000
          -365.02 -503.01 10.02 -123 rlineto
          355.98 hlineto
          hintmask 10100000
          -162.98 189 vlineto
          hintmask 01100000
          162.98 95.01 vlineto
          hintmask 10100000
          -466 153 205 callgsubr
          22 rlineto
          -238 vlineto
          endchar
        </CharString>
        <CharString name="four.tnum">
          122 endchar
        </CharString>
        <CharString name="fraction">
          -167 172 callsubr
          1211 hstem
          140 callgsubr
          839 vstem
          74 callgsubr
          172 callsubr
          93 callsubr
          endchar
        </CharString>
        <CharString name="g">
          72 39 callgsubr
          79.99 -105 callsubr
          462.01 -98 callsubr
          814 1082 rmoveto
          -10.02 -107 rlineto
          81 -18 callgsubr
          -94 46 -129 hhcurveto
          -268 -167 49 callgsubr
          168 -234 264.99 120.02 28 callgsubr
          43 75 129 callsubr
          -72.01 vlineto
          42 callgsubr
          -100 0 callgsubr
          -160.02 -100 158 callsubr
          40 28 callgsubr
          -25 callgsubr
          vhcurveto
          -116 -148.99 rlineto
          -129 95.01 188 -49 121 hhcurveto
          292 203 164 292.98 hvcurveto
          1051.01 vlineto
          -463.99 -898 rmoveto
          -172.02 -75 144 callgsubr
          77 157 -18 callsubr
          104 68.02 -47 -74 41 vhcurveto
          -471 vlineto
          -75 -41 -60 callgsubr
          -48 -7 callgsubr
          hhcurveto
          endchar
        </CharString>
        <CharString name="g.alt">
          -7 -438 190.99 269.01 192 136.98 192 367 192 -174 154 hstemhm
          -6 callsubr
          240 -181 -77 callsubr
          -172.99 19 callgsubr
          388.01 -77 callsubr
          -178.99 -77 callsubr
          hintmask 0000000000000000
          hintmask 1110100101000000
          642.99 214 rmoveto
          -178 hlineto
          -72 -55 16 60 35 15.01 24.99 20 callsubr
          19 hvcurveto
          -12 46 116 callgsubr
          -6 53 hhcurveto
          hintmask 1110101010000000
          271 181 164 -82 callgsubr
          hvcurveto
          22.02 vlineto
          -8 callsubr
          -19.99 64 -37 54 vhcurveto
          135 hlineto
          -2 154 rlineto
          -367 hlineto
          12.99 -51 callgsubr
          -54 7 -59 hhcurveto
          -269.99 -183 -150 -214 hvcurveto
          -22.02 vlineto
          -126 72 -112 121 -64.99 vhcurveto
          hintmask 1110100110000000
          -61 -42 -57 -61 158 callsubr
          vvcurveto
          -52 19 -40 31.01 -30 vhcurveto
          hintmask 1110110001000000
          202 callsubr
          -47 -86 -83.98 -123 vvcurveto
          -147 171 -129 315 349 -99 callsubr
          193 160 vhcurveto
          hintmask 1110100101000000
          197.98 -146.98 173 callsubr
          -253 vhcurveto
          hintmask 1111001010000000
          -328.01 524 rmoveto
          105 callgsubr
          161 callgsubr
          77 -69 callgsubr
          126 161 callgsubr
          -77 -37 callgsubr
          vhcurveto
          -22.02 vlineto
          1 callgsubr
          -25 callgsubr
          171 callgsubr
          -126 -128 -79.01 84.01 -37 callsubr
          vhcurveto
          hintmask 1110110001000000
          179.02 -962.99 rmoveto
          -168.02 -89 callgsubr
          65 76 61 36 -36 callgsubr
          46 24 hvcurveto
          -5.02 28 29 -1.99 30 hhcurveto
          202 hlineto
          136 40 -48 -89 callsubr
          -69 -100 -85.01 88 callsubr
          hvcurveto
          endchar
        </CharString>
        <CharString name="g.ss06">
          82 39 callgsubr
          -95 callgsubr
          248.99 472.99998 -98 callsubr
          834.99 1082 rmoveto
          -16 -113 rlineto
          -17 callsubr
          17 callsubr
          -94 48 -134 hhcurveto
          -267.98 -178.02 38 callsubr
          179 -235 265.01 120 22 callgsubr
          43 75 -88 callgsubr
          vhcurveto
          -20.01 vlineto
          -204.98 -83 -103 -187.99 -99 -93 29 44 -78 vhcurveto
          -52 -179 rlineto
          -64 101 138 138 callsubr
          162 callgsubr
          hhcurveto
          171 callsubr
          185 183 325.98 hvcurveto
          999.02 vlineto
          -463 -898 rmoveto
          -172 -87 156 190 hvcurveto
          -73 callgsubr
          197 88 151 173 103.02 89 callgsubr
          -46 -74 41 vhcurveto
          -471 vlineto
          -75.02 -40 -60 callgsubr
          -79 callsubr
          -7 callgsubr
          hhcurveto
          endchar
        </CharString>
        <CharString name="g.ss07">
          72 39 callgsubr
          -49 callgsubr
          -105 callsubr
          452.99998 -64 callgsubr
          vstem
          815.98 1082 rmoveto
          -16 -113 rlineto
          -17 callsubr
          -66 -37 callgsubr
          48 -134 hhcurveto
          -268 -158 38 callsubr
          88 callgsubr
          -235 264 120 22 callgsubr
          43 75 -88 callgsubr
          vhcurveto
          -32 vlineto
          -196.98 -82.99 -99 -188 109 callgsubr
          -83.99 23.99 37 -72 vhcurveto
          -52 -179 rlineto
          -55 94 128 -23 94 hhcurveto
          318 185 178 318.97 hvcurveto
          1011.02 vlineto
          -464 -898 rmoveto
          101 callgsubr
          -60 callgsubr
          156 190 hvcurveto
          -73 callgsubr
          197 68 151 -6 callgsubr
          105.98 119 callgsubr
          -48 -77 -49 callsubr
          vhcurveto
          -459.99 vlineto
          -79.01 -16 callsubr
          -65 -51 -110 hhcurveto
          endchar
        </CharString>
        <CharString name="germandbls">
          170 -20 200 -180 43 1314.98 200 hstemhm
          20 callgsubr
          248 232 -77 callsubr
          -124.00002 241 -44 -94 callsubr
          hintmask 00000000
          hintmask 01110100
          384 hmoveto
          1102.99 vlineto
          182 69.98 -72 callsubr
          116.02 99 154 callsubr
          -62 -112 vhcurveto
          -153 -123.99 29 callgsubr
          -169 vvcurveto
          hintmask 10111010
          -265.02 320.98 -51 callgsubr
          -173 vvcurveto
          -89 -56 -62 -127 -94 -88 157 callgsubr
          176 callgsubr
          29 callgsubr
          vhcurveto
          hintmask 01111010
          -50 -200 rlineto
          hintmask 10111010
          -34 53 129 -29 106 hhcurveto
          260 159 124 234.99 hvcurveto
          253 -322.01 -95 callgsubr
          155.02 145 117 24 205.99 vvcurveto
          hintmask 01110100
          242.02 -175 116 -229 -266 -175 -153 199 callgsubr
          vhcurveto
          -1105 vlineto
          endchar
        </CharString>
        <CharString name="grave">
          -428 126 callsubr
          -36 callgsubr
          478 vstem
          527.99 145 callsubr
          -281.99 hlineto
          270.99 35 callsubr
          endchar
        </CharString>
        <CharString name="gravecomb">
          -1090 126 callsubr
          -883.99 476.99 vstem
          -407 145 callsubr
          -281 hlineto
          270.99 35 callsubr
          endchar
        </CharString>
        <CharString name="greater">
          -25 -52 callsubr
          940.99 hstem
          128 863.98 vstem
          128 26 callsubr
          -243 vlineto
          612.99 -224 -612.99 -228.99 rlineto
          -245 vlineto
          863.99 372 rlineto
          33 vlineto
          166 vlineto
          endchar
        </CharString>
        <CharString name="guillemotleft">
          -92 118 callgsubr
          799 hstem
          -17 callsubr
          819.99 vstem
          541.98 36 callsubr
          609 399.01 rmoveto
          -170 hlineto
          -286.98 -390 rlineto
          -6 vlineto
          -13 vlineto
          286.98 -390 rlineto
          170 hlineto
          -246 400 rlineto
          endchar
        </CharString>
        <CharString name="guillemotright">
          -92 118 callgsubr
          799 hstem
          92 833 vstem
          548.99 526.99 rmoveto
          19 vlineto
          -287 390 rlineto
          -169.99 hlineto
          245.99 -399.01 159 callgsubr
          -400 rlineto
          169.99 hlineto
          376.01 799 rmoveto
          -170 hlineto
          246 -399.01 -246 -400 145 callgsubr
        </CharString>
        <CharString name="guilsinglleft">
          -462 118 callgsubr
          799 hstem
          -17 callgsubr
          456.99 vstem
          564.98 36 callsubr
          endchar
        </CharString>
        <CharString name="guilsinglright">
          -472 118 callgsubr
          799 hstem
          107 callsubr
          457.01 vstem
          -93 callsubr
          936 rmoveto
          -170 hlineto
          246 -400.02 -246 -398.99 145 callgsubr
        </CharString>
        <CharString name="h">
          49 0 43 855.99 68 callsubr
          0 callsubr
          -105 callsubr
          403.01 -98 callsubr
          172 callgsubr
          26 callsubr
          -122 -103 -51 -87 151 callgsubr
          hvcurveto
          572.01 -249 -1536 249 773.98 vlineto
          76 43 -8 callsubr
          49 99 hhcurveto
          123 10 callsubr
          -53 -148.99 hvcurveto
          -697 249 694.99 vlineto
          295 -140 112 -212.99 vhcurveto
          endchar
        </CharString>
        <CharString name="hyphen">
          -401 23 callgsubr
        </CharString>
        <CharString name="i">
          -564 0 43 -70 callgsubr
          263.98 hstemhm
          122.98 282 -265.98999 -105 callsubr
          hintmask 00000000
          hintmask 11100000
          263.98 70 callsubr
          124 -1495.98 rmoveto
          55 callgsubr
        </CharString>
        <CharString name="iacute">
          -548 0 43 1181.99 303 hstem
          10 callgsubr
          -98 callsubr
          343 1527.99 rmoveto
          -195 -11 callsubr
          -233 -1527.99 rmoveto
          55 callgsubr
        </CharString>
        <CharString name="icircumflex">
          -548 0 43 1196.98 289.01 hstem
          10 callgsubr
          -98 callsubr
          619.99 1250.98 rmoveto
          -277 278.02 rlineto
          -146 hlineto
          -273 129 callgsubr
          -13 19 callgsubr
          vlineto
          150 155.02 151 -155.02 rlineto
          199 hlineto
          -228 -1239.98 rmoveto
          55 callgsubr
        </CharString>
        <CharString name="idieresis">
          -548 0 43 1194.99 239 hstemhm
          -87 255.98 -25.98999 -105 callsubr
          -18.00002 256 hintmask 00000000
          hintmask 11101000
          40.98 1477.98 rmoveto
          -78.97 -49 -52.99 -60 callgsubr
          -66 49 -52 78.97 78 50 52 66 -72 callgsubr
          -50 52.99 -78 hvcurveto
          461 -0.99 rmoveto
          -79 -49 -53 -60 callgsubr
          -89 callsubr
          49 -52 79 78 50 52 -88 callgsubr
          -72 callgsubr
          -50 53 -78 hvcurveto
          hintmask 11010000
          -110 -1477 rmoveto
          55 callgsubr
        </CharString>
        <CharString name="igrave">
          -548 0 43 1181.99 303 hstem
          10 callgsubr
          -98 callsubr
          397.99 1224.99 99 callgsubr
          108 callsubr
          hlineto
          270.99 35 callsubr
          -99 callsubr
          -1224.99 rmoveto
          55 callgsubr
        </CharString>
        <CharString name="j">
          -574 -437 205 1463.99 263.98 hstemhm
          197 callsubr
          282 -261.01001 -94 callsubr
          hintmask 00000000
          hintmask 11100000
          -93 callsubr
          70 callsubr
          129 -413.99 rmoveto
          11 callsubr
          -1172.99 hlineto
          31 callsubr
          -44 -39 -80 -26.99 -32 2.99 5 -29 vhcurveto
          117 callsubr
          vlineto
          -11 40.02 48.99 -6 41.99 hhcurveto
          215 106 callgsubr
          122 224 hvcurveto
          endchar
        </CharString>
        <CharString name="k">
          -18 0 43 hstem
          154 callgsubr
          248 vstem
          796 hmoveto
          287.99 hlineto
          -443 631.99 401 450 rlineto
          199 callgsubr
          hlineto
          -296 -335.01 -74 -92 rlineto
          881.01 -248 -1536 248 350.99 vlineto
          109 111 rlineto
          endchar
        </CharString>
        <CharString name="k.alt">
          -14 0 43 426.99 199 hstem
          127 -98 callsubr
          791.98 hmoveto
          289.02 hlineto
          -396 587.98 350 494.02 rlineto
          -290.02 hlineto
          -267.98 -413 rlineto
          -101 867 -249 -1536 249 470 -17 callgsubr
          hlineto
          endchar
        </CharString>
        <CharString name="k.alt2">
          -18 0 43 hstem
          127 -98 callsubr
          1062.99 hmoveto
          -471 582.98 426.99 499.02 rlineto
          -303 hlineto
          -339.99 -412.02 rlineto
          890 -249 -1559.98 249 488.98 vlineto
          388 -488.98 rlineto
          endchar
        </CharString>
        <CharString name="l">
          -564 0 43 hstem
          138.99 -98 callsubr
          387.99 hmoveto
          1536 -249 -1536 vlineto
          endchar
        </CharString>
        <CharString name="less">
          -48 -52 callsubr
          940.99 hstem
          61.99 840.99 vstem
          902.98 26 callsubr
          -840.99 -371 rlineto
          -34 vlineto
          -164 vlineto
          840.99 -372 rlineto
          248 vlineto
          -588 221 588 225 rlineto
          endchar
        </CharString>
        <CharString name="logicalnot">
          43 633.99 74 callgsubr
          hstem
          761.99 -99 callsubr
          vstem
          127 804.99 rmoveto
          -170.99 635 -260.01 -99 callsubr
          260.01 vlineto
          74 callgsubr
          vlineto
          endchar
        </CharString>
        <CharString name="longs">
          -564 0 43 1313.98 200 hstem
          20 callgsubr
          -98 callsubr
          20 callgsubr
          hmoveto
          249 1183.99 hlineto
          109 198 callgsubr
          64 105 40 27 -5 -6 176 callgsubr
          vhcurveto
          24 175 callsubr
          rlineto
          11.98 -7 callsubr
          -51 callgsubr
          9.01 -52 hhcurveto
          -233 -141 -132 -241 hvcurveto
          endchar
        </CharString>
        <CharString name="longst">
          211 -20 206 -186 26 callgsubr
          275 200 hstemhm
          48 callgsubr
          336.99998 -105 callsubr
          hintmask 00000000
          hintmask 10111100
          1154.99 186 rmoveto
          -89 callsubr
          -25 callsubr
          20 callsubr
          97 hvcurveto
          595 175 callsubr
          184 -190.02 263.99 vlineto
          106 vlineto
          55.99 29 callsubr
          9 callsubr
          49 -157 hhcurveto
          -233.99 -140 -132 -241 hvcurveto
          -16 callgsubr
          -165 -184 165 vlineto
          hintmask 01111100
          -897.99 249 1183.99 vlineto
          109 55.99 64 105 -72 callgsubr
          76 -14.99 -16 139 callsubr
          vhcurveto
          -244 -176 -184 176 -612 vlineto
          hintmask 10111100
          152 callgsubr
          170 callsubr
          -82 -66 callsubr
          71 51 11.02 86 callsubr
          40 95 callgsubr
          -32.99 hhcurveto
          endchar
        </CharString>
        <CharString name="m">
          691 0 43 855.99 53 callgsubr
          394.00002 -105 callsubr
          393.99998 -94 callsubr
          vstem
          1303.98 26 callsubr
          -150 -111 -64 -101 -71 hvcurveto
          106 callgsubr
          -56 -107 -36 callgsubr
          -132 hhcurveto
          -135.99 -104.02 -51 callgsubr
          171 callgsubr
          -23 callsubr
          hvcurveto
          -8 114.01 rlineto
          -234 -1082 -22 callsubr
          781.99 hlineto
          101 callsubr
          157 callgsubr
          65 45 173 callsubr
          hhcurveto
          153 callsubr
          74 callsubr
          -49 -151.99 hvcurveto
          -698 249 721 vlineto
          -6 callsubr
          -1 7 8.01 vvcurveto
          92 28 70 63 162 callsubr
          hhcurveto
          117 -72 callsubr
          -41 -157 hvcurveto
          -700.99 -22 callsubr
          699.99 vlineto
          288.01 -134 113.99 156 callsubr
          vhcurveto
          endchar
        </CharString>
        <CharString name="macron">
          -97 1291.98 159 hstem
          201 callgsubr
          686.98 vstem
          843.98 1291.98 rmoveto
          159 -686.99 -159 vlineto
          endchar
        </CharString>
        <CharString name="minus">
          63 159 callsubr
          202 hstem
          201 callgsubr
          850.98 vstem
          1007.98 159 callsubr
          rmoveto
          202.02 -850.99 170 callgsubr
          vlineto
          endchar
        </CharString>
        <CharString name="multiply">
          2 213.99 944.98 hstem
          75.98 930.02 vstem
          1006 1007.98 rmoveto
          -151 151 -314 -320 -314.02 320 -151 -151 315 -321 -315 -321.99 151 -151 314.02 320 314 -320 151 151 -315 321.99 rlineto
          endchar
        </CharString>
        <CharString name="n">
          165 callsubr
          hstem
          104 callgsubr
          -105 callsubr
          402.01 -98 callsubr
          675.98 1101.99 -70 callsubr
        </CharString>
        <CharString name="nine">
          76 -8 -92 callgsubr
          278.98999 195 601 201 hstem
          93 245.99 458.98999 248 vstem
          565.99 1475.99 rmoveto
          -300 -173 -229 -280 -258.99 138 -229 281.99 111 100 52 75 101 callsubr
          hvcurveto
          -234.99 -16.02 -116 -171 -340.99 hhcurveto
          -18 -207.99 20.01 hlineto
          553.99 167.02 381.99 428.01 hvcurveto
          82 vlineto
          325 -163 267 -317.01 vhcurveto
          1 -802 rmoveto
          122 callgsubr
          -73.02 10 callgsubr
          157 164 82 118 callgsubr
          144 91 callsubr
          -17 callgsubr
          204 callgsubr
          -230 hvcurveto
          202 callsubr
          vlineto
          -87 -41 -86 -18 callgsubr
          -104 hhcurveto
          endchar
        </CharString>
        <CharString name="nine.frac">
          653.98 116 callsubr
          113.02 141 253.98999 -27 callsubr
          1463.99 63 callgsubr
          -129 122 callgsubr
          -166 95 -97 166 -61 callsubr
          54 22 34 41 hvcurveto
          29 callsubr
          -17 -87 -38 54 callsubr
          91 callsubr
          309 hvcurveto
          52.98 vlineto
          217 -126 106 146 callsubr
          35 callgsubr
          74 callsubr
          -3 callsubr
          -70 vlineto
          21 callsubr
          73 callsubr
        </CharString>
        <CharString name="nine.smcp">
          -35 -12 -99 callsubr
          189 136 callsubr
          416.01 200 hstem
          -49 callgsubr
          246.99 379.99998 -98 callsubr
          514.99 1181 rmoveto
          -269 -167 -188 -226 -232 18 callsubr
          -158 250 99 84.01 157 callgsubr
          54 59 hvcurveto
          -193 -21.02 -123 -87 -260 hhcurveto
          -18 -199.99 20 hlineto
          448 205.99 135 callsubr
          415.01 hvcurveto
          71 vlineto
          298.98 42 callgsubr
          178 -274 vhcurveto
          3.99 -616.02 rmoveto
          120 callsubr
          -63.02 88 114.02 117 69.02 97 120 107 107 callsubr
          -74 -155.02 hvcurveto
          89 callsubr
          vlineto
          -52 -31.01 169 callsubr
          -44 -88 hhcurveto
          endchar
        </CharString>
        <CharString name="nine.sup">
          -9.99 149.98 113.00002 141 253.98999 -27 callsubr
          799.99 63 callgsubr
          -129 -155 -166 95 -97 166 -61 callsubr
          55 22 34 40 hvcurveto
          120 callsubr
          -16 -88 -24 callgsubr
          -156 hhcurveto
          -13 -149.97 14.99 hlineto
          279 170 -69 callgsubr
          309 hvcurveto
          53 vlineto
          216.99 -126 106 146 callsubr
          48 73 -3 callsubr
          -69 vlineto
          -26.99 73 callsubr
        </CharString>
        <CharString name="nine.tnum">
          113 endchar
        </CharString>
        <CharString name="ntilde">
          165 callsubr
          154.99998 65 callgsubr
          104 callgsubr
          -105 callsubr
          -162.99 -87 callgsubr
          414.01 -105 callsubr
          -229.99 152 hintmask 00000000
          hintmask 11010110
          447 1345.99 rmoveto
          hintmask 11101001
          158 callgsubr
          33.02 -89 18 callgsubr
          hhcurveto
          127 97.02 25 callgsubr
          -152 12 rlineto
          -19 callgsubr
          -40 -41 100 callgsubr
          hintmask 11010110
          -16 callgsubr
          -60 -37 callsubr
          -108 hhcurveto
          -128 -95 -115 -146 hvcurveto
          151 -36 callsubr
          rlineto
          -45 callsubr
          40 41 116 callgsubr
          vhcurveto
          hintmask 11101010
          118 callsubr
          -244 -70 callsubr
        </CharString>
        <CharString name="numbersign">
          156 0 43 366.98 160 309 161 375.04 -85 callgsubr
          93 1115.99 vstem
          1209 203 callgsubr
          rmoveto
          161 -210 vlineto
          132 callgsubr
          -221 hlineto
          132 callgsubr
          -272 -161 135 callgsubr
          hlineto
          -57 -308.98 rlineto
          -260 -160 231 hlineto
          -76 -409.99 rlineto
          169 hlineto
          76 409.99 rlineto
          220 hlineto
          -76 -409.99 rlineto
          170 hlineto
          76 409.99 rlineto
          250 160 -221 hlineto
          57 308.98 rlineto
          -226 -308.98 rmoveto
          -221 hlineto
          58 308.98 rlineto
          220 hlineto
          endchar
        </CharString>
        <CharString name="o">
          75 -20 200 721.98 200 -40 callgsubr
          -95 callgsubr
          550.99 -107 callgsubr
        </CharString>
        <CharString name="o.ss06">
          95 188 callsubr
          176 callsubr
          -105 callsubr
          538.99998 -94 callsubr
          vstem
          176 callsubr
          550.99 rmoveto
          -21.01 vlineto
          -314 -82 callgsubr
          -235.99 134 callgsubr
          318 200 235.99 314 65 callsubr
          314 -200 237 -320 -316.01 88 callsubr
          -237 -314 vhcurveto
          249 -21.01 rmoveto
          -45 callgsubr
          28 callgsubr
          162 177 180 28 callgsubr
          -162 -188.99 vhcurveto
          -21.01 vlineto
          -192 -92 134 callsubr
          16 callsubr
          -180 -90 157.99 192 vhcurveto
          endchar
        </CharString>
        <CharString name="oacute">
          75 -66 callgsubr
          84 callgsubr
          -40 callgsubr
          648.99 1536 rmoveto
          -195 -11 callsubr
          -852.99 -985.01 -107 callgsubr
        </CharString>
        <CharString name="ocircumflex">
          75 -66 callgsubr
          146 288.99 -40 callgsubr
          925.98 1258.99 rmoveto
          -276.99 278 rlineto
          -146 hlineto
          -273 -35 callsubr
          -848 -697 -107 callgsubr
        </CharString>
        <CharString name="odieresis">
          75 -66 callgsubr
          146 237.99 25 callsubr
          75 callsubr
          67 callsubr
          -98.01001 -94 callsubr
          hintmask 00000000
          hintmask 11101100
          346.99 1485.99 rmoveto
          -94 callgsubr
          132 callsubr
          -85 callsubr
          149 callgsubr
          10 callsubr
          -38 callsubr
          hvcurveto
          461 -1 rmoveto
          -94 callgsubr
          -67.01 -85 callsubr
          77.99 73 callgsubr
          -77.99 hvcurveto
          hintmask 11010010
          -730.01 -933.99 -107 callgsubr
        </CharString>
        <CharString name="oe">
          760 -24 callsubr
          -99 callsubr
          289.99 179.99 252.99998 200 hstem
          8 callgsubr
          -105 callsubr
          498.99998 261.02 432.98 246 vstem
          1777.99 613.99 rmoveto
          291 -153 197 -300 vhcurveto
          -146 1 87 callgsubr
          -65 152 callsubr
          75 callsubr
          rrcurveto
          158 callgsubr
          -85 -130 65 -167 hhcurveto
          -316 -181 -237 -314 85 callgsubr
          -314 181 -236.97 317.99 203 callsubr
          128 64.98 106 -17 callsubr
          vhcurveto
          -106 87 18 callsubr
          -64.98 203 callsubr
          hhcurveto
          193 133 65.98 63 72 hvcurveto
          -79.01 162 rlineto
          -51 callgsubr
          -75 -84 -41 -143 hhcurveto
          -169 -88 128 162 202 callgsubr
          hvcurveto
          679 hlineto
          -940.01 -45 callsubr
          rmoveto
          -192 -23 callsubr
          -158.99 -177 -180 -70 158.99 192 vhcurveto
          -45 callgsubr
          71 162 177 180 154 callsubr
          -162 -188.99 vhcurveto
          694 98 rmoveto
          -428 hlineto
          145 23 77 108 121 hhcurveto
          146 -45 callsubr
          -100.99 -127 hvcurveto
          endchar
        </CharString>
        <CharString name="ograve">
          75 -66 callgsubr
          84 callgsubr
          -40 callgsubr
          704 1233 81 callsubr
          -420 -682 -107 callgsubr
        </CharString>
        <CharString name="one">
          76 0 43 1377.01999 -85 callgsubr
          522.99 -98 callsubr
          771.99 hmoveto
          1460.98 -31 vlineto
          -572.99 -210 rlineto
          -208 vlineto
          355 170 callsubr
          rlineto
          -1161.99 vlineto
          endchar
        </CharString>
        <CharString name="one.smcp">
          -35 0 43 hstem
          463.99 -98 callsubr
          712.99 hmoveto
          -65 callsubr
          -28 vlineto
          -535 -175 rlineto
          -198 vlineto
          314 161 callgsubr
          rlineto
          -872 vlineto
          endchar
        </CharString>
        <CharString name="one.sup">
          0 43 72 callsubr
          hmoveto
          147 callgsubr
          204 callgsubr
          142 callgsubr
        </CharString>
        <CharString name="one.tnum">
          -28 endchar
        </CharString>
        <CharString name="ordfeminine">
          -177 691.99 143.99 198.01 117 177.98999 148 hstemhm
          140.98 175 -158.98999 174 callgsubr
          253.99998 175 hintmask 11101100
          785 705.99 rmoveto
          -19 58 -7 58 65 vvcurveto
          314 vlineto
          183 -116 93 -175 -188 -122.99 202 callsubr
          -134.98 vhcurveto
          173 -14.01 rlineto
          64 52 35 86 78.01 1 callsubr
          -45 -82 vhcurveto
          -51 -16 callgsubr
          vlineto
          hintmask 11110100
          -230 -111 171 callgsubr
          -147 -138 168 callsubr
          0 callgsubr
          88 callgsubr
          95 65 157 callgsubr
          45 41 hvcurveto
          3.99 -23.99 6 -23 7 -21.01 rrcurveto
          -292 218 rmoveto
          58 51 52 116 vhcurveto
          173 callsubr
          -137 hlineto
          -33 -36 -60.99 -28 -54 hhcurveto
          -80 -37 33 55 hvcurveto
          endchar
        </CharString>
        <CharString name="ordmasculine">
          -154 690.99 146 491.98999 148 hstem
          0 callsubr
          175 342.98999 175 vstem
          0 callsubr
          1122 rmoveto
          -77 vlineto
          -207 134 -146.99 214 213.02 132 146.99 207 vhcurveto
          77 vlineto
          -57 callgsubr
          -132 148 -215 -212 -134 -148 196 callsubr
          vhcurveto
          175 -77 rmoveto
          77 vlineto
          117 55.99 8 callgsubr
          106 callgsubr
          116 55.99 0 callgsubr
          -117 vhcurveto
          -77 vlineto
          -119.01 194 callsubr
          1 callgsubr
          133 callgsubr
          -117 194 callsubr
          -37 callsubr
          170 callsubr
          vhcurveto
          endchar
        </CharString>
        <CharString name="oslash">
          70 -66 callgsubr
          69.04 40.96 -40 callgsubr
          890 1003.99 rmoveto
          101.99 208 rlineto
          -147 hlineto
          -71 -144 rlineto
          22 -57 -65 12 -70.99 hhcurveto
          -316 -187 -237 -314 85 callgsubr
          -197 74 callsubr
          42 callgsubr
          133 -97.01 vhcurveto
          31 callsubr
          -207.97 rlineto
          147 hlineto
          72 146.98 rlineto
          -18.98 28 callsubr
          61 -10.02 30 callsubr
          hhcurveto
          134 callgsubr
          186 235.99 314 hvcurveto
          -73 callgsubr
          192 -70 164 -127 97 vhcurveto
          -563.02 -474.01 rmoveto
          -45 callgsubr
          77 162 177 1 callsubr
          34 -6.99 -14.01 29 vhcurveto
          -293.99 -599 rlineto
          -42 63 -19 88 97 vvcurveto
          511 hmoveto
          -192 -89 callgsubr
          134 callsubr
          -177 -34 -30 6 10 21 callsubr
          vhcurveto
          290 590.99 rlineto
          37 -63 17.99 -83.99 -89.01 vvcurveto
          endchar
        </CharString>
        <CharString name="otilde">
          75 -66 callgsubr
          155 167 -78 166.99 25 callsubr
          117 callgsubr
          -87 callgsubr
          432.99998 152 -106 -94 callsubr
          hintmask 00000000
          hintmask 11101010
          943.98 1514.99 rmoveto
          -152 12 rlineto
          -19 callgsubr
          -40 -41 -51 vhcurveto
          hintmask 11010101
          -16 callgsubr
          -60 -80 callgsubr
          -36 callgsubr
          vhcurveto
          hintmask 11101001
          162 callsubr
          139 callsubr
          -89 131 hhcurveto
          hintmask 11101010
          127 34 callgsubr
          25 callgsubr
          hintmask 11101001
          -866 -964 -107 callgsubr
        </CharString>
        <CharString name="p">
          63 -20 200 718.99 53 callgsubr
          454.00002 -98 callsubr
          651 26 callsubr
          87 callgsubr
          -95 -47 -82 -69 hvcurveto
          -10 109.02 rlineto
          -229 -1498 -22 callsubr
          513 hlineto
          -74 68 93 -43 121 hhcurveto
          271.01 55 callsubr
          -274.98 vhcurveto
          175 -571 rmoveto
          -191 -70 60 callgsubr
          74 39 -88 callgsubr
          47 104 hhcurveto
          172 72 -155 -192 hvcurveto
          endchar
        </CharString>
        <CharString name="p.ss06">
          83 -20 200 718.99 53 callgsubr
          473.99 -98 callsubr
          651 26 callsubr
          -127.02 -37 callgsubr
          -48 -83.99 -69 hvcurveto
          -14.01 112 rlineto
          -223 -1498 -22 callsubr
          513 hlineto
          -75 68 93 -42 121 hhcurveto
          271.01 169.99 112 callsubr
          -169 222 -274.98 vhcurveto
          194.99 -572 rmoveto
          -190 0 callgsubr
          105 callsubr
          -172 -105 -89 callsubr
          46.98 71 -40 vhcurveto
          484 vlineto
          101 callsubr
          41 68 45 162 callgsubr
          hhcurveto
          172 92 -151 -197 hvcurveto
          endchar
        </CharString>
        <CharString name="paragraph">
          -84 -67 callsubr
          644.99 210.98 vstem
          645 hmoveto
          210.99 -68 callgsubr
          -293.99 hlineto
          -318 -174.02 -199.99 -268 -270.01 174.02 -198 318 hvcurveto
          83 hlineto
          endchar
        </CharString>
        <CharString name="parenleft">
          -375 -462 2091 hstem
          128 223.99 vstem
          128 200 callsubr
          rmoveto
          -17 vlineto
          -576 290.98 -360 207.02 -101 vhcurveto
          48.99 137 rlineto
          -151 121 -172 277.99 499 vvcurveto
          21 vlineto
          499.02 172 278 151 115 vhcurveto
          -79 callsubr
          143 rlineto
          -207.02 -101 -290.98 -360 -576 vvcurveto
          endchar
        </CharString>
        <CharString name="parenright">
          -367 -462 2091 hstem
          362.98 233 vstem
          595.99 575 rmoveto
          17 vlineto
          565.99 -295 370.01 -212 101 vhcurveto
          -79 callsubr
          -137 rlineto
          140.99 -113.99 182 -285 -499.02 vvcurveto
          -21 vlineto
          -499 -173 -283.99 -150 -115 vhcurveto
          48.99 -137 rlineto
          212 101 295 370.99 565 vvcurveto
          endchar
        </CharString>
        <CharString name="percent">
          415 -24 callsubr
          34 callsubr
          380.98 148 143 148 381 148 hstem
          98.97 173.01 274.01001 -18 callsubr
          80.99998 172 275 172 vstem
          98.98 1175.98 rmoveto
          87 callsubr
          vlineto
          -163 2 callgsubr
          -136 198 199 109 136 163 vhcurveto
          2 callsubr
          vlineto
          165 -109 136 -201 -196 -113.01 -136 -165 vhcurveto
          -6 callgsubr
          87 callsubr
          rmoveto
          2 callsubr
          vlineto
          161 callgsubr
          44 -72 callsubr
          92 93 90 callgsubr
          -65 callgsubr
          -80.02 vhcurveto
          87 callsubr
          vlineto
          -25 callgsubr
          -44 -65 callgsubr
          -92 -94 -44 -72 callsubr
          78.01 vhcurveto
          -90 callsubr
          -990 93 callsubr
          466 175 rmoveto
          -89 callgsubr
          vlineto
          -164 113 -135.99 198 198 110 20 callgsubr
          164 vhcurveto
          -95 callgsubr
          vlineto
          164 -110 136 -200 -196 -113 -136 -164 vhcurveto
          172 -89 callgsubr
          rmoveto
          -95 callgsubr
          vlineto
          79.01 45 -72 callsubr
          92 93 45 -65 callgsubr
          -79.01 vhcurveto
          -89 callgsubr
          vlineto
          -79.01 -71 callsubr
          -23 callsubr
          -99 -89.01 -51 callgsubr
          -72 callsubr
          78 vhcurveto
          endchar
        </CharString>
        <CharString name="period">
          -515 -12 273.98 hstem
          133.98 289.01 vstem
          279 261.98 rmoveto
          -91.01 -54 -8 callgsubr
          -78 -76 54 -59.98 22 callgsubr
          8 callgsubr
          -11 callgsubr
          0 callgsubr
          hvcurveto
          endchar
        </CharString>
        <CharString name="periodcentered">
          -507 576.98 272.99 hstem
          92 callgsubr
          -32 callsubr
          vstem
          285.98 849.98 rmoveto
          89 callsubr
          -53 -58.99 -78 -77 53 -59 28 callgsubr
          107 callgsubr
          32 callgsubr
          59 77 78 85 callsubr
          103 callsubr
          137 callgsubr
          hvcurveto
          endchar
        </CharString>
        <CharString name="plus">
          49 576.98 225.99 362.04999 -85 callgsubr
          446.99 239.98 vstem
          1064.98 802.98 rmoveto
          -378 403.01 -239.99 -403.01 -380 -226 380 -431 239.99 431 378 hlineto
          endchar
        </CharString>
        <CharString name="plusminus">
          9 0.98 202 498 204 hstem
          448.98 220.01 vstem
          669 904.99 rmoveto
          372 156 callsubr
          -372 -355 -204 355 -386 220.02 386 341 204 vlineto
          -886 -904.01 rmoveto
          851 202.02 -851 hlineto
          endchar
        </CharString>
        <CharString name="q">
          73 94 callgsubr
          452.99998 -94 callsubr
          vstem
          806.99 1082 rmoveto
          -14 -107 rlineto
          81 -68 -94 46 -124 hhcurveto
          -273 -156 38 callsubr
          157 -235 194 callgsubr
          117 8 callgsubr
          41 72 68 vhcurveto
          -509 -22 callsubr
          1498 vlineto
          -460 -902 rmoveto
          -172.02 -70 88 callgsubr
          190 hvcurveto
          -73 callgsubr
          192 71 158.99 173 100 89 callgsubr
          -45 -71 41 vhcurveto
          -484.99 vlineto
          -73.01 -41 -18 callgsubr
          173 callgsubr
          -104 hhcurveto
          endchar
        </CharString>
        <CharString name="q.ss06">
          93 94 callgsubr
          472.99998 -98 callsubr
          832.98 1082 rmoveto
          -17 -110.02 rlineto
          83 -69 -94 47 136 callgsubr
          hhcurveto
          -273 -176 49 callgsubr
          177 -234 174 callsubr
          117 163 callsubr
          41 71 89 callgsubr
          vhcurveto
          -508 249 1498 vlineto
          -460 -902 rmoveto
          101 callgsubr
          109 callgsubr
          158.99 175 callsubr
          hvcurveto
          21 vlineto
          198 107 callgsubr
          153.99 173 98 68 29 callgsubr
          -69 43 vhcurveto
          -494 vlineto
          -70 -42 -89 callsubr
          -46 -102.02 hhcurveto
          endchar
        </CharString>
        <CharString name="question">
          -90 -12 266.99 1013.98999 207 hstemhm
          330.99 281.98 -262.99 231 93.01001 -64 callgsubr
          hintmask 11011000
          349.98 430.98 rmoveto
          231.02 hlineto
          103 callgsubr
          100 20 76 101 callsubr
          -72 callgsubr
          rrcurveto
          128.98 104 callgsubr
          121.02 118 176.99 vvcurveto
          245 -158 142 -270.01 159 callgsubr
          -188 -131 -255 -4 vhcurveto
          249 hlineto
          127 11 callgsubr
          92.02 52 105 callgsubr
          hhcurveto
          116 62.02 -89 callsubr
          -123 -112 -72.01 -65 0 callgsubr
          -86 hvcurveto
          -121.02 -116 -40 -81 -1 -188 rrcurveto
          hintmask 11101000
          122 -175.99 rmoveto
          -87.98 -53 -58 -76 -75 53 -58 87.98 88 53 58 75 76 -53 58 -88 hvcurveto
          endchar
        </CharString>
        <CharString name="questiondown">
          -90 -386 207 1013.99 266.99 hstemhm
          -88 callgsubr
          -105 callsubr
          60.01 281 -253.01001 230.99 hintmask 00000000
          hintmask 11110000
          517 834.99 rmoveto
          88 52 59 75 75 -52 58 -88 -89 -52 -58 -75 -75 52 -59 89 hvcurveto
          hintmask 11101000
          153 callsubr
          -176 rmoveto
          -231 hlineto
          -1 -100 -15.99 -70.99 -73 138 callgsubr
          rrcurveto
          -123 117 callgsubr
          -124 -122 -178.02 vvcurveto
          -247.99 -52 callsubr
          -139 273 246 188 134 255 4 vhcurveto
          -250 hlineto
          -127 -1 89 callsubr
          -54.99 -99 hhcurveto
          -113.99 138 callgsubr
          -45 callsubr
          123 104 callgsubr
          74 65 156 callgsubr
          87 hvcurveto
          0 callsubr
          118 40.02 2 callsubr
          103 callgsubr
          187 rrcurveto
          endchar
        </CharString>
        <CharString name="quotedbl">
          -427 1008.98 527.01 hstem
          17 callgsubr
          178.99 126.01 19 callsubr
          vstem
          274.98 1399.99 rmoveto
          136 -179 -527.02 143 vlineto
          340.01 391 rmoveto
          136 -178 -527.02 92 callgsubr
          vlineto
          endchar
        </CharString>
        <CharString name="quotedblbase">
          -307 -318.99 574.99 189 callsubr
          -17 callgsubr
          219.99 vstem
          360 195 callsubr
          rmoveto
          195 callgsubr
          156 callsubr
          -186.02 vlineto
          -125.97 124 callgsubr
          -96.01 -56 0 callgsubr
          vhcurveto
          169 callgsubr
          -77 rlineto
          107 94 71 163 132.97 vvcurveto
          327.99 hmoveto
          1 195 callgsubr
          rlineto
          -221 -186.02 hlineto
          -125.97 -36 -96.01 -54.99 0 callgsubr
          vhcurveto
          129 -77 rlineto
          108 94 176 callsubr
          163 132.97 vvcurveto
          endchar
        </CharString>
        <CharString name="quotedblleft">
          -296 1055.98 508 hstem
          172 callsubr
          177 callsubr
          122.01 177 callsubr
          vstem
          172 callsubr
          1193.98 rmoveto
          -3 callgsubr
          337 hmoveto
          -3 callgsubr
          endchar
        </CharString>
        <CharString name="quotedblright">
          -289 1021.99 514 hstem
          158.99 177 callsubr
          120.01 177 callsubr
          vstem
          373.99 1391.98 rmoveto
          44 callgsubr
          -23 callgsubr
          109 callgsubr
          -55 -84 vhcurveto
          91 callsubr
          -89 callgsubr
          rlineto
          -17 callgsubr
          8 callgsubr
          75 154 30 callgsubr
          vvcurveto
          335.01 hmoveto
          44 callgsubr
          -37 109 callgsubr
          -56 -84 vhcurveto
          126 -89 callgsubr
          rlineto
          107 8 callgsubr
          75 154 30 callgsubr
          vvcurveto
          endchar
        </CharString>
        <CharString name="quoteleft">
          -638 1055.98 508 hstem
          42 callsubr
          216 vstem
          42 callsubr
          1193.98 rmoveto
          -138 216 139 vlineto
          118 37 8 callgsubr
          28 callsubr
          83 vhcurveto
          -124.99 78.01 rlineto
          -108.01 -89 -75 -155 -126.02 vvcurveto
          endchar
        </CharString>
        <CharString name="quoteright">
          -642 1021.99 514 hstem
          144.99 177 callsubr
          vstem
          360 1391.98 rmoveto
          44 callgsubr
          -37 109 callgsubr
          -55 -84 vhcurveto
          91 callsubr
          -89 callgsubr
          rlineto
          -17 callgsubr
          8 callgsubr
          74.02 154 30 callgsubr
          vvcurveto
          endchar
        </CharString>
        <CharString name="quotesinglbase">
          -622 -299 504.99 189 callsubr
          vstem
          360 195 callsubr
          rmoveto
          135 156 callsubr
          -136 vlineto
          -116.98 124 callgsubr
          89 callsubr
          -56 171 callgsubr
          vhcurveto
          126 -77 rlineto
          107 89 75 155 30 callgsubr
          vvcurveto
          endchar
        </CharString>
        <CharString name="quotesingle">
          -746 1015.99 520 hstem
          79.99 136 callsubr
          vstem
          267.98 1408 rmoveto
          128 -187.99 -520.01 162 vlineto
          endchar
        </CharString>
        <CharString name="r">
          -366 0 43 818.98 240 hstem
          47 callsubr
          vstem
          610 26 callsubr
          123 callgsubr
          -81 -54 -87.98 -53 hvcurveto
          -6.99 122 rlineto
          -237.02 -1082 -22 callsubr
          150 callsubr
          -49 callgsubr
          35.99 72 46 116 hhcurveto
          33 35 -2.99 -5 31 hvcurveto
          2 234.99 rlineto
          7 -17 -42 6 -28 hhcurveto
          endchar
        </CharString>
        <CharString name="registered">
          515 -24 callsubr
          -69 callgsubr
          548.98 134 246.01001 151 callsubr
          184.99998 125 hstem
          87 122 292.98 -87 callgsubr
          198 callsubr
          -87 callgsubr
          279.01 -88 callsubr
          308 411 rmoveto
          95 -30 2 callsubr
          -85.02 40.02 vhcurveto
          77 41 41 -61 callsubr
          78 vvcurveto
          173 -127 87 -198 vhcurveto
          -281 -850 151 337 158 hlineto
          104 -31 callsubr
          -45 -94 hvcurveto
          -54 vlineto
          -29 0 -81 12.99 -34 vhcurveto
          155.02 16 hlineto
          -13 30 -4 47 50 vvcurveto
          -309 327.99 rmoveto
          -143.02 246 130 hlineto
          130 45 -33 86 callgsubr
          -76 -76 -39 -86 -1 hvcurveto
          endchar
        </CharString>
        <CharString name="ring">
          -401 1159.98 96 callsubr
          121 110 222.98 110.01 vstem
          342 1571.98 rmoveto
          -127 -94 -94 -114 186 callsubr
          127 95 89 115 114 -95 94 -127 hvcurveto
          -317.99 vmoveto
          132 callsubr
          -45 52 58 61 45 52 10 callsubr
          -88 callgsubr
          45 -52 -61 -59 -45 -51 -89 callsubr
          hvcurveto
          endchar
        </CharString>
        <CharString name="s">
          -33 -20 193 callsubr
          752 193 callsubr
          hstemhm
          172 callsubr
          135 callgsubr
          364.01 -105 callsubr
          -236.99 243.99 hintmask 11101000
          496.99 451.99 rmoveto
          -76 callsubr
          hintmask 11110000
          154 callgsubr
          140 callsubr
          -76 171 callgsubr
          hvcurveto
          249 hlineto
          195 -164 150 -272 -258 -161 -152 16 callsubr
          vhcurveto
          hintmask 11101000
          -183 158 0 callgsubr
          135 callsubr
          -48 vhcurveto
          endchar
        </CharString>
        <CharString name="section">
          185 -472 201 1547.98 200 hstemhm
          93.98 -94 callsubr
          -214.01 -94 callsubr
          505.00002 -105 callsubr
          -235.98001 -105 callsubr
          -225.01001 247 hintmask 11011000
          997.99 186 rmoveto
          hintmask 11010010
          107 56 62 92 91 callsubr
          vvcurveto
          245 -172.02 98.98 -302.98 161 callgsubr
          vhcurveto
          -254 69 -8 callgsubr
          39 112 vvcurveto
          95 79 -49 callgsubr
          179 vhcurveto
          hintmask 11010100
          170 163 callsubr
          -16 callgsubr
          -127.02 hvcurveto
          249 hlineto
          276.01 -193 153 -316 -308 -199 -149.02 -227 29 callsubr
          47 -89 87 -66 vhcurveto
          hintmask 11101000
          -7 callgsubr
          -57 -62.02 -94 -122 vvcurveto
          159 callgsubr
          177 -100 295 -79.01 vhcurveto
          244 -70.99 73.02 -46 -16 callgsubr
          vvcurveto
          -99 137 callgsubr
          -70 42 callgsubr
          -137 -150 50 174 vhcurveto
          -249 -1 rlineto
          -321.98 271 31 callsubr
          265.01 305.99 200 134 237 vhcurveto
          hintmask 11011000
          151 callsubr
          -47 88 -87 66 vhcurveto
          hintmask 11100010
          -655 372.99 rmoveto
          74.02 31 callgsubr
          59 71 29 vhcurveto
          47 -18 52 -16.02 57 -15 rrcurveto
          244 199 callsubr
          74 -7 callsubr
          -104.98 vvcurveto
          -73.01 -39 -58 -70 -31 vhcurveto
          -47 17 -51 16.02 -56 14.99 rrcurveto
          -255.02 74 callsubr
          -58.99 41.99 116 vvcurveto
          endchar
        </CharString>
        <CharString name="semicolon">
          -596 832.98 274 hstemhm
          -17 callgsubr
          -32 callsubr
          159 callgsubr
          220.99 hintmask 00000000
          hintmask 11000000
          251.99 1106.98 rmoveto
          0 callgsubr
          -54 -8 callgsubr
          -78 -77 54 -59 8 callgsubr
          22 callgsubr
          32 callgsubr
          59 77 78 85 callsubr
          -61 callsubr
          -91.01 hvcurveto
          hintmask 10100000
          120.01 -1046 rmoveto
          176 -221 -185 vlineto
          -129 -47 1 callgsubr
          104 callsubr
          109 callgsubr
          vhcurveto
          134 -77 rlineto
          115 121 callgsubr
          75.02 -52 callsubr
          118 callgsubr
          vvcurveto
          endchar
        </CharString>
        <CharString name="seven">
          76 0 43 1212.99 -99 callsubr
          hstem
          69 1010.99 vstem
          1079.99 1317.99 rmoveto
          137.99 -1011 -199.99 749 vlineto
          -579.01 -1256 rlineto
          262 hlineto
          endchar
        </CharString>
        <CharString name="seven.frac">
          1300.99 152 -2 callsubr
          1346.99 rmoveto
          106 -633 -152 434.01 vlineto
          -338 -637.01 rlineto
          199 hlineto
          endchar
        </CharString>
        <CharString name="seven.smcp">
          -35 166 callsubr
          56.99 920.98 vstem
          977.98 1025.99 rmoveto
          139 -920.99 88 callsubr
          658.99 vlineto
          -512 -963.99 rlineto
          263 hlineto
          endchar
        </CharString>
        <CharString name="seven.sup">
          0 43 593.98 152 -2 callsubr
          682.99 rmoveto
          106 -633 -152 40 callgsubr
        </CharString>
        <CharString name="seven.tnum">
          -20 endchar
        </CharString>
        <CharString name="six">
          71 callgsubr
          115 -64 callgsubr
          471 246.99 vstem
          172 callgsubr
          965.98 rmoveto
          -121 -103.02 29 callgsubr
          -25 callgsubr
          -65 callgsubr
          hvcurveto
          231.02 139 callgsubr
          143.02 161 callsubr
          310.98 hhcurveto
          17 205 -30 hlineto
          -519.99 110 callsubr
          300 175 177 callgsubr
          280 254.02 -132 233.99 -284 vhcurveto
          -62 -785 rmoveto
          -132 -108 -2 callgsubr
        </CharString>
</ttFont>
